<svg xmlns="http://www.w3.org/2000/svg" version="1.1" width="351" height="170">
<path d="M 2.878906 13.319336 L 2.878906 6.412109 L 6.729980 6.412109 L 6.729980 7.335938 L 3.738281 7.335938 L 3.738281 13.319336 Z " fill="rgb(0, 0, 0)" fill-opacity="1.000000" />
<path d="M 2.878906 26.319336 L 2.878906 12.300781 L 3.738281 12.300781 L 3.738281 26.319336 Z " fill="rgb(0, 0, 0)" fill-opacity="1.000000" />
<path d="M 2.878906 39.319336 L 2.878906 25.300781 L 3.738281 25.300781 L 3.738281 39.319336 Z " fill="rgb(0, 0, 0)" fill-opacity="1.000000" />
<path d="M 2.878906 52.319336 L 2.878906 38.300781 L 3.738281 38.300781 L 3.738281 52.319336 Z " fill="rgb(0, 0, 0)" fill-opacity="1.000000" />
<path d="M 2.878906 65.319336 L 2.878906 51.300781 L 3.738281 51.300781 L 3.738281 65.319336 Z " fill="rgb(0, 0, 0)" fill-opacity="1.000000" />
<path d="M 2.878906 78.319336 L 2.878906 64.300781 L 3.738281 64.300781 L 3.738281 78.319336 Z " fill="rgb(0, 0, 0)" fill-opacity="1.000000" />
<path d="M 2.878906 91.319336 L 2.878906 77.300781 L 3.738281 77.300781 L 3.738281 84.412109 L 6.729980 84.412109 L 6.729980 85.335938 L 3.738281 85.335938 L 3.738281 91.319336 Z " fill="rgb(0, 0, 0)" fill-opacity="1.000000" />
<path d="M 2.878906 104.319336 L 2.878906 90.300781 L 3.738281 90.300781 L 3.738281 104.319336 Z " fill="rgb(0, 0, 0)" fill-opacity="1.000000" />
<path d="M 2.878906 117.319336 L 2.878906 103.300781 L 3.738281 103.300781 L 3.738281 117.319336 Z " fill="rgb(0, 0, 0)" fill-opacity="1.000000" />
<path d="M 2.878906 130.319336 L 2.878906 116.300781 L 3.738281 116.300781 L 3.738281 130.319336 Z " fill="rgb(0, 0, 0)" fill-opacity="1.000000" />
<path d="M 2.878906 143.319336 L 2.878906 129.300781 L 3.738281 129.300781 L 3.738281 143.319336 Z " fill="rgb(0, 0, 0)" fill-opacity="1.000000" />
<path d="M 2.878906 156.319336 L 2.878906 142.300781 L 3.738281 142.300781 L 3.738281 156.319336 Z " fill="rgb(0, 0, 0)" fill-opacity="1.000000" />
<path d="M 2.878906 163.335938 L 2.878906 155.300781 L 3.738281 155.300781 L 3.738281 162.412109 L 6.729980 162.412109 L 6.729980 163.335938 Z " fill="rgb(0, 0, 0)" fill-opacity="1.000000" />
<path d="M 6.892578 163.335938 L 6.892578 162.412109 L 13.729980 162.412109 L 13.729980 163.335938 Z " fill="rgb(0, 0, 0)" fill-opacity="1.000000" />
<path d="M 13.892578 163.335938 L 13.892578 162.412109 L 20.729980 162.412109 L 20.729980 163.335938 Z " fill="rgb(0, 0, 0)" fill-opacity="1.000000" />
<path d="M 20.892578 163.335938 L 20.892578 162.412109 L 27.729980 162.412109 L 27.729980 163.335938 Z " fill="rgb(0, 0, 0)" fill-opacity="1.000000" />
<path d="M 27.892578 163.335938 L 27.892578 162.412109 L 34.729980 162.412109 L 34.729980 163.335938 Z " fill="rgb(0, 0, 0)" fill-opacity="1.000000" />
<path d="M 34.892578 163.335938 L 34.892578 162.412109 L 41.729980 162.412109 L 41.729980 163.335938 Z " fill="rgb(0, 0, 0)" fill-opacity="1.000000" />
<path d="M 41.892578 163.335938 L 41.892578 162.412109 L 48.729980 162.412109 L 48.729980 163.335938 Z " fill="rgb(0, 0, 0)" fill-opacity="1.000000" />
<path d="M 48.892578 163.335938 L 48.892578 162.412109 L 55.729980 162.412109 L 55.729980 163.335938 Z " fill="rgb(0, 0, 0)" fill-opacity="1.000000" />
<path d="M 55.892578 163.335938 L 55.892578 162.412109 L 62.729980 162.412109 L 62.729980 163.335938 Z " fill="rgb(0, 0, 0)" fill-opacity="1.000000" />
<path d="M 62.892578 163.335938 L 62.892578 162.412109 L 69.729980 162.412109 L 69.729980 163.335938 Z " fill="rgb(0, 0, 0)" fill-opacity="1.000000" />
<path d="M 69.892578 163.335938 L 69.892578 162.412109 L 76.729980 162.412109 L 76.729980 163.335938 Z " fill="rgb(0, 0, 0)" fill-opacity="1.000000" />
<path d="M 76.892578 163.335938 L 76.892578 162.412109 L 83.729980 162.412109 L 83.729980 163.335938 Z " fill="rgb(0, 0, 0)" fill-opacity="1.000000" />
<path d="M 83.892578 163.335938 L 83.892578 162.412109 L 90.729980 162.412109 L 90.729980 163.335938 Z " fill="rgb(0, 0, 0)" fill-opacity="1.000000" />
<path d="M 90.892578 163.335938 L 90.892578 162.412109 L 97.729980 162.412109 L 97.729980 163.335938 Z " fill="rgb(0, 0, 0)" fill-opacity="1.000000" />
<path d="M 97.892578 163.335938 L 97.892578 162.412109 L 104.729980 162.412109 L 104.729980 163.335938 Z " fill="rgb(0, 0, 0)" fill-opacity="1.000000" />
<path d="M 104.892578 163.335938 L 104.892578 162.412109 L 111.729980 162.412109 L 111.729980 163.335938 Z " fill="rgb(0, 0, 0)" fill-opacity="1.000000" />
<path d="M 111.892578 163.335938 L 111.892578 162.412109 L 118.729980 162.412109 L 118.729980 163.335938 Z " fill="rgb(0, 0, 0)" fill-opacity="1.000000" />
<path d="M 118.892578 163.335938 L 118.892578 162.412109 L 125.729980 162.412109 L 125.729980 163.335938 Z " fill="rgb(0, 0, 0)" fill-opacity="1.000000" />
<path d="M 125.892578 163.335938 L 125.892578 162.412109 L 132.729980 162.412109 L 132.729980 163.335938 Z " fill="rgb(0, 0, 0)" fill-opacity="1.000000" />
<path d="M 132.892578 163.335938 L 132.892578 162.412109 L 139.729980 162.412109 L 139.729980 163.335938 Z " fill="rgb(0, 0, 0)" fill-opacity="1.000000" />
<path d="M 139.892578 163.335938 L 139.892578 162.412109 L 146.729980 162.412109 L 146.729980 163.335938 Z " fill="rgb(0, 0, 0)" fill-opacity="1.000000" />
<path d="M 146.892578 163.335938 L 146.892578 162.412109 L 153.729980 162.412109 L 153.729980 163.335938 Z " fill="rgb(0, 0, 0)" fill-opacity="1.000000" />
<path d="M 153.892578 163.335938 L 153.892578 162.412109 L 160.729980 162.412109 L 160.729980 163.335938 Z " fill="rgb(0, 0, 0)" fill-opacity="1.000000" />
<path d="M 160.892578 163.335938 L 160.892578 162.412109 L 167.729980 162.412109 L 167.729980 163.335938 Z " fill="rgb(0, 0, 0)" fill-opacity="1.000000" />
<path d="M 167.892578 163.335938 L 167.892578 162.412109 L 174.729980 162.412109 L 174.729980 163.335938 Z " fill="rgb(0, 0, 0)" fill-opacity="1.000000" />
<path d="M 174.892578 163.335938 L 174.892578 162.412109 L 181.729980 162.412109 L 181.729980 163.335938 Z " fill="rgb(0, 0, 0)" fill-opacity="1.000000" />
<path d="M 181.892578 163.335938 L 181.892578 162.412109 L 188.729980 162.412109 L 188.729980 163.335938 Z " fill="rgb(0, 0, 0)" fill-opacity="1.000000" />
<path d="M 188.892578 163.335938 L 188.892578 162.412109 L 195.729980 162.412109 L 195.729980 163.335938 Z " fill="rgb(0, 0, 0)" fill-opacity="1.000000" />
<path d="M 195.892578 163.335938 L 195.892578 162.412109 L 202.729980 162.412109 L 202.729980 163.335938 Z " fill="rgb(0, 0, 0)" fill-opacity="1.000000" />
<path d="M 202.892578 163.335938 L 202.892578 162.412109 L 209.729980 162.412109 L 209.729980 163.335938 Z " fill="rgb(0, 0, 0)" fill-opacity="1.000000" />
<path d="M 209.892578 163.335938 L 209.892578 162.412109 L 216.729980 162.412109 L 216.729980 163.335938 Z " fill="rgb(0, 0, 0)" fill-opacity="1.000000" />
<path d="M 216.892578 163.335938 L 216.892578 162.412109 L 223.729980 162.412109 L 223.729980 163.335938 Z " fill="rgb(0, 0, 0)" fill-opacity="1.000000" />
<path d="M 223.892578 163.335938 L 223.892578 162.412109 L 230.729980 162.412109 L 230.729980 163.335938 Z " fill="rgb(0, 0, 0)" fill-opacity="1.000000" />
<path d="M 230.892578 163.335938 L 230.892578 162.412109 L 237.729980 162.412109 L 237.729980 163.335938 Z " fill="rgb(0, 0, 0)" fill-opacity="1.000000" />
<path d="M 237.892578 163.335938 L 237.892578 162.412109 L 244.729980 162.412109 L 244.729980 163.335938 Z " fill="rgb(0, 0, 0)" fill-opacity="1.000000" />
<path d="M 244.892578 163.335938 L 244.892578 162.412109 L 251.729980 162.412109 L 251.729980 163.335938 Z " fill="rgb(0, 0, 0)" fill-opacity="1.000000" />
<path d="M 251.892578 163.335938 L 251.892578 162.412109 L 258.729980 162.412109 L 258.729980 163.335938 Z " fill="rgb(0, 0, 0)" fill-opacity="1.000000" />
<path d="M 258.892578 163.335938 L 258.892578 162.412109 L 265.729980 162.412109 L 265.729980 163.335938 Z " fill="rgb(0, 0, 0)" fill-opacity="1.000000" />
<path d="M 265.892578 163.335938 L 265.892578 162.412109 L 272.729980 162.412109 L 272.729980 163.335938 Z " fill="rgb(0, 0, 0)" fill-opacity="1.000000" />
<path d="M 272.892578 163.335938 L 272.892578 162.412109 L 279.729980 162.412109 L 279.729980 163.335938 Z " fill="rgb(0, 0, 0)" fill-opacity="1.000000" />
<path d="M 279.892578 163.335938 L 279.892578 162.412109 L 286.729980 162.412109 L 286.729980 163.335938 Z " fill="rgb(0, 0, 0)" fill-opacity="1.000000" />
<path d="M 286.892578 163.335938 L 286.892578 162.412109 L 293.729980 162.412109 L 293.729980 163.335938 Z " fill="rgb(0, 0, 0)" fill-opacity="1.000000" />
<path d="M 293.892578 163.335938 L 293.892578 162.412109 L 300.729980 162.412109 L 300.729980 163.335938 Z " fill="rgb(0, 0, 0)" fill-opacity="1.000000" />
<path d="M 300.892578 163.335938 L 300.892578 162.412109 L 307.729980 162.412109 L 307.729980 163.335938 Z " fill="rgb(0, 0, 0)" fill-opacity="1.000000" />
<path d="M 307.892578 163.335938 L 307.892578 162.412109 L 314.729980 162.412109 L 314.729980 163.335938 Z " fill="rgb(0, 0, 0)" fill-opacity="1.000000" />
<path d="M 314.892578 163.335938 L 314.892578 162.412109 L 321.729980 162.412109 L 321.729980 163.335938 Z " fill="rgb(0, 0, 0)" fill-opacity="1.000000" />
<path d="M 321.892578 163.335938 L 321.892578 162.412109 L 328.729980 162.412109 L 328.729980 163.335938 Z " fill="rgb(0, 0, 0)" fill-opacity="1.000000" />
<path d="M 328.892578 163.335938 L 328.892578 162.412109 L 335.729980 162.412109 L 335.729980 163.335938 Z " fill="rgb(0, 0, 0)" fill-opacity="1.000000" />
<path d="M 335.892578 163.335938 L 335.892578 162.412109 L 342.729980 162.412109 L 342.729980 163.335938 Z " fill="rgb(0, 0, 0)" fill-opacity="1.000000" />
<path d="M 342.892578 163.335938 L 342.892578 162.412109 L 345.878906 162.412109 L 345.878906 155.300781 L 346.738281 155.300781 L 346.738281 163.335938 Z " fill="rgb(0, 0, 0)" fill-opacity="1.000000" />
<path d="M 14.735840 118.980957 L 15.826172 118.980957 L 15.826172 122.053223 L 18.796387 122.053223 L 18.796387 118.980957 L 19.886719 118.980957 L 19.886719 127.000000 L 18.796387 127.000000 L 18.796387 122.966309 L 15.826172 122.966309 L 15.826172 127.000000 L 14.735840 127.000000 Z " fill="rgb(0, 0, 0)" fill-opacity="1.000000" />
<path d="M 79.878906 143.319336 L 79.878906 129.300781 L 80.738281 129.300781 L 80.738281 143.319336 Z " fill="rgb(0, 0, 0)" fill-opacity="1.000000" />
<path d="M 79.878906 150.335938 L 79.878906 142.300781 L 80.738281 142.300781 L 80.738281 149.412109 L 83.729980 149.412109 L 83.729980 150.335938 Z " fill="rgb(0, 0, 0)" fill-opacity="1.000000" />
<path d="M 83.892578 150.335938 L 83.892578 149.412109 L 90.729980 149.412109 L 90.729980 150.335938 Z " fill="rgb(0, 0, 0)" fill-opacity="1.000000" />
<path d="M 90.892578 150.335938 L 90.892578 149.412109 L 97.729980 149.412109 L 97.729980 150.335938 Z " fill="rgb(0, 0, 0)" fill-opacity="1.000000" />
<path d="M 97.892578 150.335938 L 97.892578 149.412109 L 104.729980 149.412109 L 104.729980 150.335938 Z " fill="rgb(0, 0, 0)" fill-opacity="1.000000" />
<path d="M 104.892578 150.335938 L 104.892578 149.412109 L 111.729980 149.412109 L 111.729980 150.335938 Z " fill="rgb(0, 0, 0)" fill-opacity="1.000000" />
<path d="M 111.892578 150.335938 L 111.892578 149.412109 L 118.729980 149.412109 L 118.729980 150.335938 Z " fill="rgb(0, 0, 0)" fill-opacity="1.000000" />
<path d="M 118.892578 150.335938 L 118.892578 149.412109 L 125.729980 149.412109 L 125.729980 150.335938 Z " fill="rgb(0, 0, 0)" fill-opacity="1.000000" />
<path d="M 125.892578 150.335938 L 125.892578 149.412109 L 132.729980 149.412109 L 132.729980 150.335938 Z " fill="rgb(0, 0, 0)" fill-opacity="1.000000" />
<path d="M 132.892578 150.335938 L 132.892578 149.412109 L 139.729980 149.412109 L 139.729980 150.335938 Z " fill="rgb(0, 0, 0)" fill-opacity="1.000000" />
<path d="M 139.892578 150.335938 L 139.892578 149.412109 L 146.729980 149.412109 L 146.729980 150.335938 Z " fill="rgb(0, 0, 0)" fill-opacity="1.000000" />
<path d="M 146.892578 150.335938 L 146.892578 149.412109 L 153.729980 149.412109 L 153.729980 150.335938 Z " fill="rgb(0, 0, 0)" fill-opacity="1.000000" />
<path d="M 153.892578 150.335938 L 153.892578 149.412109 L 160.729980 149.412109 L 160.729980 150.335938 Z " fill="rgb(0, 0, 0)" fill-opacity="1.000000" />
<path d="M 160.892578 150.335938 L 160.892578 149.412109 L 163.878906 149.412109 L 163.878906 142.300781 L 164.738281 142.300781 L 164.738281 149.412109 L 167.729980 149.412109 L 167.729980 150.335938 Z " fill="rgb(0, 0, 0)" fill-opacity="1.000000" />
<path d="M 167.892578 150.335938 L 167.892578 149.412109 L 174.729980 149.412109 L 174.729980 150.335938 Z " fill="rgb(0, 0, 0)" fill-opacity="1.000000" />
<path d="M 174.892578 150.335938 L 174.892578 149.412109 L 181.729980 149.412109 L 181.729980 150.335938 Z " fill="rgb(0, 0, 0)" fill-opacity="1.000000" />
<path d="M 181.892578 150.335938 L 181.892578 149.412109 L 188.729980 149.412109 L 188.729980 150.335938 Z " fill="rgb(0, 0, 0)" fill-opacity="1.000000" />
<path d="M 188.892578 150.335938 L 188.892578 149.412109 L 195.729980 149.412109 L 195.729980 150.335938 Z " fill="rgb(0, 0, 0)" fill-opacity="1.000000" />
<path d="M 195.892578 150.335938 L 195.892578 149.412109 L 202.729980 149.412109 L 202.729980 150.335938 Z " fill="rgb(0, 0, 0)" fill-opacity="1.000000" />
<path d="M 202.892578 150.335938 L 202.892578 149.412109 L 209.729980 149.412109 L 209.729980 150.335938 Z " fill="rgb(0, 0, 0)" fill-opacity="1.000000" />
<path d="M 209.892578 150.335938 L 209.892578 149.412109 L 216.729980 149.412109 L 216.729980 150.335938 Z " fill="rgb(0, 0, 0)" fill-opacity="1.000000" />
<path d="M 216.892578 150.335938 L 216.892578 149.412109 L 223.729980 149.412109 L 223.729980 150.335938 Z " fill="rgb(0, 0, 0)" fill-opacity="1.000000" />
<path d="M 223.892578 150.335938 L 223.892578 149.412109 L 230.729980 149.412109 L 230.729980 150.335938 Z " fill="rgb(0, 0, 0)" fill-opacity="1.000000" />
<path d="M 230.892578 150.335938 L 230.892578 149.412109 L 237.729980 149.412109 L 237.729980 150.335938 Z " fill="rgb(0, 0, 0)" fill-opacity="1.000000" />
<path d="M 237.892578 150.335938 L 237.892578 149.412109 L 244.729980 149.412109 L 244.729980 150.335938 Z " fill="rgb(0, 0, 0)" fill-opacity="1.000000" />
<path d="M 244.892578 150.335938 L 244.892578 149.412109 L 247.878906 149.412109 L 247.878906 142.300781 L 248.738281 142.300781 L 248.738281 149.412109 L 251.729980 149.412109 L 251.729980 150.335938 Z " fill="rgb(0, 0, 0)" fill-opacity="1.000000" />
<path d="M 251.892578 150.335938 L 251.892578 149.412109 L 258.729980 149.412109 L 258.729980 150.335938 Z " fill="rgb(0, 0, 0)" fill-opacity="1.000000" />
<path d="M 258.892578 150.335938 L 258.892578 149.412109 L 265.729980 149.412109 L 265.729980 150.335938 Z " fill="rgb(0, 0, 0)" fill-opacity="1.000000" />
<path d="M 265.892578 150.335938 L 265.892578 149.412109 L 272.729980 149.412109 L 272.729980 150.335938 Z " fill="rgb(0, 0, 0)" fill-opacity="1.000000" />
<path d="M 272.892578 150.335938 L 272.892578 149.412109 L 279.729980 149.412109 L 279.729980 150.335938 Z " fill="rgb(0, 0, 0)" fill-opacity="1.000000" />
<path d="M 279.892578 150.335938 L 279.892578 149.412109 L 286.729980 149.412109 L 286.729980 150.335938 Z " fill="rgb(0, 0, 0)" fill-opacity="1.000000" />
<path d="M 286.892578 150.335938 L 286.892578 149.412109 L 293.729980 149.412109 L 293.729980 150.335938 Z " fill="rgb(0, 0, 0)" fill-opacity="1.000000" />
<path d="M 293.892578 150.335938 L 293.892578 149.412109 L 300.729980 149.412109 L 300.729980 150.335938 Z " fill="rgb(0, 0, 0)" fill-opacity="1.000000" />
<path d="M 300.892578 150.335938 L 300.892578 149.412109 L 307.729980 149.412109 L 307.729980 150.335938 Z " fill="rgb(0, 0, 0)" fill-opacity="1.000000" />
<path d="M 307.892578 150.335938 L 307.892578 149.412109 L 314.729980 149.412109 L 314.729980 150.335938 Z " fill="rgb(0, 0, 0)" fill-opacity="1.000000" />
<path d="M 314.892578 150.335938 L 314.892578 149.412109 L 321.729980 149.412109 L 321.729980 150.335938 Z " fill="rgb(0, 0, 0)" fill-opacity="1.000000" />
<path d="M 321.892578 150.335938 L 321.892578 149.412109 L 328.729980 149.412109 L 328.729980 150.335938 Z " fill="rgb(0, 0, 0)" fill-opacity="1.000000" />
<path d="M 328.892578 150.335938 L 328.892578 149.412109 L 331.878906 149.412109 L 331.878906 142.300781 L 332.738281 142.300781 L 332.738281 150.335938 Z " fill="rgb(0, 0, 0)" fill-opacity="1.000000" />
<path d="M 345.878906 156.319336 L 345.878906 142.300781 L 346.738281 142.300781 L 346.738281 156.319336 Z " fill="rgb(0, 0, 0)" fill-opacity="1.000000" />
<path d="M 163.878906 143.319336 L 163.878906 129.300781 L 164.738281 129.300781 L 164.738281 143.319336 Z " fill="rgb(0, 0, 0)" fill-opacity="1.000000" />
<path d="M 247.878906 143.319336 L 247.878906 129.300781 L 248.738281 129.300781 L 248.738281 143.319336 Z " fill="rgb(0, 0, 0)" fill-opacity="1.000000" />
<path d="M 331.878906 143.319336 L 331.878906 129.300781 L 332.738281 129.300781 L 332.738281 143.319336 Z " fill="rgb(0, 0, 0)" fill-opacity="1.000000" />
<path d="M 345.878906 143.319336 L 345.878906 129.300781 L 346.738281 129.300781 L 346.738281 143.319336 Z " fill="rgb(0, 0, 0)" fill-opacity="1.000000" />
<path d="M 24.770508 123.976074 L 24.442871 123.976074 Q 23.578125 123.976074 23.140381 124.279541 Q 22.702637 124.583008 22.702637 125.184570 Q 22.702637 125.727051 23.030273 126.027832 Q 23.357910 126.328613 23.937988 126.328613 Q 24.754395 126.328613 25.221680 125.761963 Q 25.688965 125.195312 25.694336 124.196289 L 25.694336 123.976074 Z M 26.687988 123.567871 L 26.687988 127.000000 L 25.694336 127.000000 L 25.694336 126.108398 Q 25.377441 126.645508 24.896729 126.900635 Q 24.416016 127.155762 23.728516 127.155762 Q 22.810059 127.155762 22.262207 126.637451 Q 21.714355 126.119141 21.714355 125.249023 Q 21.714355 124.244629 22.388428 123.723633 Q 23.062500 123.202637 24.367676 123.202637 L 25.694336 123.202637 L 25.694336 123.046875 Q 25.688965 122.327148 25.329102 122.002197 Q 24.969238 121.677246 24.179688 121.677246 Q 23.674805 121.677246 23.159180 121.822266 Q 22.643555 121.967285 22.154785 122.246582 L 22.154785 121.258301 Q 22.702637 121.048828 23.204834 120.944092 Q 23.707031 120.839355 24.179688 120.839355 Q 24.926270 120.839355 25.455322 121.059570 Q 25.984375 121.279785 26.312012 121.720215 Q 26.516113 121.988770 26.602051 122.383545 Q 26.687988 122.778320 26.687988 123.567871 Z " fill="rgb(0, 0, 0)" fill-opacity="1.000000" />
<path d="M 34.203613 122.225098 Q 33.886719 121.978027 33.559082 121.865234 Q 33.231445 121.752441 32.839355 121.752441 Q 31.915527 121.752441 31.426758 122.332520 Q 30.937988 122.912598 30.937988 124.008301 L 30.937988 127.000000 L 29.944336 127.000000 L 29.944336 120.984375 L 30.937988 120.984375 L 30.937988 122.160645 Q 31.185059 121.521484 31.697998 121.180420 Q 32.210938 120.839355 32.914551 120.839355 Q 33.279785 120.839355 33.596680 120.930664 Q 33.913574 121.021973 34.203613 121.215332 Z " fill="rgb(0, 0, 0)" fill-opacity="1.000000" />
<path d="M 39.608398 121.752441 L 39.608398 118.642578 L 40.596680 118.642578 L 40.596680 127.000000 L 39.608398 127.000000 L 39.608398 126.242676 Q 39.361328 126.688477 38.950439 126.922119 Q 38.539551 127.155762 38.002441 127.155762 Q 36.912109 127.155762 36.286377 126.309814 Q 35.660645 125.463867 35.660645 123.976074 Q 35.660645 122.509766 36.289062 121.674561 Q 36.917480 120.839355 38.002441 120.839355 Q 38.544922 120.839355 38.958496 121.072998 Q 39.372070 121.306641 39.608398 121.752441 Z M 36.702637 123.997559 Q 36.702637 125.146973 37.067871 125.732422 Q 37.433105 126.317871 38.147461 126.317871 Q 38.861816 126.317871 39.235107 125.727051 Q 39.608398 125.136230 39.608398 123.997559 Q 39.608398 122.853516 39.235107 122.265381 Q 38.861816 121.677246 38.147461 121.677246 Q 37.433105 121.677246 37.067871 122.262695 Q 36.702637 122.848145 36.702637 123.997559 Z " fill="rgb(0, 0, 0)" fill-opacity="1.000000" />
<path d="M 42.000000 120.984375 L 42.977539 120.984375 L 44.024902 125.845215 L 44.884277 122.740723 L 45.727539 122.740723 L 46.597656 125.845215 L 47.645020 120.984375 L 48.622559 120.984375 L 47.215332 127.000000 L 46.270020 127.000000 L 45.308594 123.702148 L 44.352539 127.000000 L 43.407227 127.000000 Z " fill="rgb(0, 0, 0)" fill-opacity="1.000000" />
<path d="M 52.770508 123.976074 L 52.442871 123.976074 Q 51.578125 123.976074 51.140381 124.279541 Q 50.702637 124.583008 50.702637 125.184570 Q 50.702637 125.727051 51.030273 126.027832 Q 51.357910 126.328613 51.937988 126.328613 Q 52.754395 126.328613 53.221680 125.761963 Q 53.688965 125.195312 53.694336 124.196289 L 53.694336 123.976074 Z M 54.687988 123.567871 L 54.687988 127.000000 L 53.694336 127.000000 L 53.694336 126.108398 Q 53.377441 126.645508 52.896729 126.900635 Q 52.416016 127.155762 51.728516 127.155762 Q 50.810059 127.155762 50.262207 126.637451 Q 49.714355 126.119141 49.714355 125.249023 Q 49.714355 124.244629 50.388428 123.723633 Q 51.062500 123.202637 52.367676 123.202637 L 53.694336 123.202637 L 53.694336 123.046875 Q 53.688965 122.327148 53.329102 122.002197 Q 52.969238 121.677246 52.179688 121.677246 Q 51.674805 121.677246 51.159180 121.822266 Q 50.643555 121.967285 50.154785 122.246582 L 50.154785 121.258301 Q 50.702637 121.048828 51.204834 120.944092 Q 51.707031 120.839355 52.179688 120.839355 Q 52.926270 120.839355 53.455322 121.059570 Q 53.984375 121.279785 54.312012 121.720215 Q 54.516113 121.988770 54.602051 122.383545 Q 54.687988 122.778320 54.687988 123.567871 Z " fill="rgb(0, 0, 0)" fill-opacity="1.000000" />
<path d="M 62.203613 122.225098 Q 61.886719 121.978027 61.559082 121.865234 Q 61.231445 121.752441 60.839355 121.752441 Q 59.915527 121.752441 59.426758 122.332520 Q 58.937988 122.912598 58.937988 124.008301 L 58.937988 127.000000 L 57.944336 127.000000 L 57.944336 120.984375 L 58.937988 120.984375 L 58.937988 122.160645 Q 59.185059 121.521484 59.697998 121.180420 Q 60.210938 120.839355 60.914551 120.839355 Q 61.279785 120.839355 61.596680 120.930664 Q 61.913574 121.021973 62.203613 121.215332 Z " fill="rgb(0, 0, 0)" fill-opacity="1.000000" />
<path d="M 69.015625 123.498047 L 69.015625 123.981445 L 64.734863 123.981445 L 64.734863 124.013672 Q 64.691895 125.243652 65.204834 125.780762 Q 65.717773 126.317871 66.652344 126.317871 Q 67.125000 126.317871 67.640625 126.167480 Q 68.156250 126.017090 68.741699 125.710938 L 68.741699 126.693848 Q 68.177734 126.924805 67.654053 127.040283 Q 67.130371 127.155762 66.641602 127.155762 Q 65.239746 127.155762 64.450195 126.315186 Q 63.660645 125.474609 63.660645 123.997559 Q 63.660645 122.558105 64.434082 121.698730 Q 65.207520 120.839355 66.496582 120.839355 Q 67.645996 120.839355 68.309326 121.618164 Q 68.972656 122.396973 69.015625 123.498047 Z M 68.027344 123.208008 Q 67.962891 122.584961 67.573486 122.131104 Q 67.184082 121.677246 66.453613 121.677246 Q 65.739258 121.677246 65.277344 122.149902 Q 64.815430 122.622559 64.772461 123.213379 Z " fill="rgb(0, 0, 0)" fill-opacity="1.000000" />
<path d="M 79.878906 130.319336 L 79.878906 116.300781 L 80.738281 116.300781 L 80.738281 130.319336 Z " fill="rgb(0, 0, 0)" fill-opacity="1.000000" />
<path d="M 117.763184 126.715332 Q 117.349609 126.935547 116.914551 127.045654 Q 116.479492 127.155762 115.990723 127.155762 Q 114.449219 127.155762 113.597900 126.065430 Q 112.746582 124.975098 112.746582 122.998535 Q 112.746582 121.032715 113.603271 119.934326 Q 114.459961 118.835938 115.990723 118.835938 Q 116.479492 118.835938 116.914551 118.946045 Q 117.349609 119.056152 117.763184 119.276367 L 117.763184 120.388184 Q 117.365723 120.060547 116.909180 119.888672 Q 116.452637 119.716797 115.990723 119.716797 Q 114.932617 119.716797 114.406250 120.533203 Q 113.879883 121.349609 113.879883 122.998535 Q 113.879883 124.642090 114.406250 125.458496 Q 114.932617 126.274902 115.990723 126.274902 Q 116.463379 126.274902 116.917236 126.103027 Q 117.371094 125.931152 117.763184 125.603516 Z " fill="rgb(0, 0, 0)" fill-opacity="1.000000" />
<path d="M 121.143066 119.872559 L 121.143066 122.885742 L 122.399902 122.885742 Q 123.151855 122.885742 123.573486 122.488281 Q 123.995117 122.090820 123.995117 121.376465 Q 123.995117 120.662109 123.576172 120.267334 Q 123.157227 119.872559 122.399902 119.872559 Z M 120.058105 118.980957 L 122.399902 118.980957 Q 123.742676 118.980957 124.435547 119.590576 Q 125.128418 120.200195 125.128418 121.376465 Q 125.128418 122.563477 124.438232 123.170410 Q 123.748047 123.777344 122.399902 123.777344 L 121.143066 123.777344 L 121.143066 127.000000 L 120.058105 127.000000 Z " fill="rgb(0, 0, 0)" fill-opacity="1.000000" />
<path d="M 126.789551 123.922363 L 126.789551 118.980957 L 127.879883 118.980957 L 127.879883 124.416504 Q 127.879883 125.001953 127.912109 125.251709 Q 127.944336 125.501465 128.024902 125.635742 Q 128.196777 125.952637 128.521729 126.113770 Q 128.846680 126.274902 129.308594 126.274902 Q 129.775879 126.274902 130.098145 126.113770 Q 130.420410 125.952637 130.597656 125.635742 Q 130.678223 125.501465 130.710449 125.254395 Q 130.742676 125.007324 130.742676 124.427246 L 130.742676 118.980957 L 131.827637 118.980957 L 131.827637 123.922363 Q 131.827637 125.152344 131.674561 125.670654 Q 131.521484 126.188965 131.145508 126.527344 Q 130.791016 126.844238 130.334473 127.000000 Q 129.877930 127.155762 129.308594 127.155762 Q 128.744629 127.155762 128.288086 127.000000 Q 127.831543 126.844238 127.471680 126.527344 Q 127.101074 126.194336 126.945312 125.665283 Q 126.789551 125.136230 126.789551 123.922363 Z " fill="rgb(0, 0, 0)" fill-opacity="1.000000" />
<path d="M 163.878906 130.319336 L 163.878906 116.300781 L 164.738281 116.300781 L 164.738281 130.319336 Z " fill="rgb(0, 0, 0)" fill-opacity="1.000000" />
<path d="M 200.082031 123.213379 Q 200.500977 123.320801 200.796387 123.618896 Q 201.091797 123.916992 201.532227 124.808594 L 202.622559 127.000000 L 201.457031 127.000000 L 200.500977 124.975098 Q 200.087402 124.110352 199.757080 123.860596 Q 199.426758 123.610840 198.895020 123.610840 L 197.858398 123.610840 L 197.858398 127.000000 L 196.768066 127.000000 L 196.768066 118.980957 L 199.002441 118.980957 Q 200.323730 118.980957 201.027344 119.577148 Q 201.730957 120.173340 201.730957 121.301270 Q 201.730957 122.096191 201.298584 122.598389 Q 200.866211 123.100586 200.082031 123.213379 Z M 197.858398 119.872559 L 197.858398 122.719238 L 199.045410 122.719238 Q 199.824219 122.719238 200.205566 122.370117 Q 200.586914 122.020996 200.586914 121.301270 Q 200.586914 120.608398 200.181396 120.240479 Q 199.775879 119.872559 199.002441 119.872559 Z " fill="rgb(0, 0, 0)" fill-opacity="1.000000" />
<path d="M 206.308594 119.937012 L 205.164551 124.040527 L 207.452637 124.040527 Z M 205.653320 118.980957 L 206.969238 118.980957 L 209.423828 127.000000 L 208.301270 127.000000 L 207.710449 124.910645 L 204.901367 124.910645 L 204.321289 127.000000 L 203.198730 127.000000 Z " fill="rgb(0, 0, 0)" fill-opacity="1.000000" />
<path d="M 210.193359 119.007812 L 211.643555 119.007812 L 213.029297 123.079102 L 214.425781 119.007812 L 215.881348 119.007812 L 215.881348 127.000000 L 214.876953 127.000000 L 214.876953 119.937012 L 213.448242 124.147949 L 212.626465 124.147949 L 211.192383 119.937012 L 211.192383 127.000000 L 210.193359 127.000000 Z " fill="rgb(0, 0, 0)" fill-opacity="1.000000" />
<path d="M 247.878906 130.319336 L 247.878906 116.300781 L 248.738281 116.300781 L 248.738281 130.319336 Z " fill="rgb(0, 0, 0)" fill-opacity="1.000000" />
<path d="M 281.079590 118.980957 L 285.532227 118.980957 L 285.532227 119.894043 L 283.851074 119.894043 L 283.851074 126.086914 L 285.532227 126.086914 L 285.532227 127.000000 L 281.079590 127.000000 L 281.079590 126.086914 L 282.760742 126.086914 L 282.760742 119.894043 L 281.079590 119.894043 Z " fill="rgb(0, 0, 0)" fill-opacity="1.000000" />
<path d="M 291.774902 118.980957 L 292.795410 118.980957 L 288.573730 128.020508 L 287.547852 128.020508 Z " fill="rgb(0, 0, 0)" fill-opacity="1.000000" />
<path d="M 298.860840 122.998535 Q 298.860840 121.231445 298.498291 120.474121 Q 298.135742 119.716797 297.308594 119.716797 Q 296.486816 119.716797 296.124268 120.474121 Q 295.761719 121.231445 295.761719 122.998535 Q 295.761719 124.760254 296.124268 125.517578 Q 296.486816 126.274902 297.308594 126.274902 Q 298.135742 126.274902 298.498291 125.520264 Q 298.860840 124.765625 298.860840 122.998535 Z M 299.994141 122.998535 Q 299.994141 125.093262 299.330811 126.124512 Q 298.667480 127.155762 297.308594 127.155762 Q 295.949707 127.155762 295.289062 126.129883 Q 294.628418 125.104004 294.628418 122.998535 Q 294.628418 120.898438 295.291748 119.867188 Q 295.955078 118.835938 297.308594 118.835938 Q 298.667480 118.835938 299.330811 119.867188 Q 299.994141 120.898438 299.994141 122.998535 Z " fill="rgb(0, 0, 0)" fill-opacity="1.000000" />
<path d="M 331.878906 130.319336 L 331.878906 116.300781 L 332.738281 116.300781 L 332.738281 130.319336 Z " fill="rgb(0, 0, 0)" fill-opacity="1.000000" />
<path d="M 345.878906 130.319336 L 345.878906 116.300781 L 346.738281 116.300781 L 346.738281 130.319336 Z " fill="rgb(0, 0, 0)" fill-opacity="1.000000" />
<path d="M 79.878906 104.319336 L 79.878906 97.412109 L 83.729980 97.412109 L 83.729980 98.335938 L 80.738281 98.335938 L 80.738281 104.319336 Z " fill="rgb(0, 0, 0)" fill-opacity="1.000000" />
<path d="M 79.878906 117.319336 L 79.878906 103.300781 L 80.738281 103.300781 L 80.738281 117.319336 Z " fill="rgb(0, 0, 0)" fill-opacity="1.000000" />
<path d="M 163.878906 117.319336 L 163.878906 103.300781 L 164.738281 103.300781 L 164.738281 117.319336 Z " fill="rgb(0, 0, 0)" fill-opacity="1.000000" />
<path d="M 247.878906 117.319336 L 247.878906 103.300781 L 248.738281 103.300781 L 248.738281 117.319336 Z " fill="rgb(0, 0, 0)" fill-opacity="1.000000" />
<path d="M 331.878906 117.319336 L 331.878906 103.300781 L 332.738281 103.300781 L 332.738281 117.319336 Z " fill="rgb(0, 0, 0)" fill-opacity="1.000000" />
<path d="M 345.878906 117.319336 L 345.878906 103.300781 L 346.738281 103.300781 L 346.738281 117.319336 Z " fill="rgb(0, 0, 0)" fill-opacity="1.000000" />
<path d="M 83.892578 98.335938 L 83.892578 97.412109 L 90.729980 97.412109 L 90.729980 98.335938 Z " fill="rgb(0, 0, 0)" fill-opacity="1.000000" />
<path d="M 90.892578 98.335938 L 90.892578 97.412109 L 97.729980 97.412109 L 97.729980 98.335938 Z " fill="rgb(0, 0, 0)" fill-opacity="1.000000" />
<path d="M 97.892578 98.335938 L 97.892578 97.412109 L 104.729980 97.412109 L 104.729980 98.335938 Z " fill="rgb(0, 0, 0)" fill-opacity="1.000000" />
<path d="M 104.892578 98.335938 L 104.892578 97.412109 L 111.729980 97.412109 L 111.729980 98.335938 Z " fill="rgb(0, 0, 0)" fill-opacity="1.000000" />
<path d="M 111.892578 98.335938 L 111.892578 97.412109 L 118.729980 97.412109 L 118.729980 98.335938 Z " fill="rgb(0, 0, 0)" fill-opacity="1.000000" />
<path d="M 118.892578 98.335938 L 118.892578 97.412109 L 125.729980 97.412109 L 125.729980 98.335938 Z " fill="rgb(0, 0, 0)" fill-opacity="1.000000" />
<path d="M 125.892578 98.335938 L 125.892578 97.412109 L 132.729980 97.412109 L 132.729980 98.335938 Z " fill="rgb(0, 0, 0)" fill-opacity="1.000000" />
<path d="M 132.892578 98.335938 L 132.892578 97.412109 L 139.729980 97.412109 L 139.729980 98.335938 Z " fill="rgb(0, 0, 0)" fill-opacity="1.000000" />
<path d="M 139.892578 98.335938 L 139.892578 97.412109 L 146.729980 97.412109 L 146.729980 98.335938 Z " fill="rgb(0, 0, 0)" fill-opacity="1.000000" />
<path d="M 146.892578 98.335938 L 146.892578 97.412109 L 153.729980 97.412109 L 153.729980 98.335938 Z " fill="rgb(0, 0, 0)" fill-opacity="1.000000" />
<path d="M 153.892578 98.335938 L 153.892578 97.412109 L 160.729980 97.412109 L 160.729980 98.335938 Z " fill="rgb(0, 0, 0)" fill-opacity="1.000000" />
<path d="M 163.878906 104.319336 L 163.878906 98.335938 L 160.892578 98.335938 L 160.892578 97.412109 L 167.729980 97.412109 L 167.729980 98.335938 L 164.738281 98.335938 L 164.738281 104.319336 Z " fill="rgb(0, 0, 0)" fill-opacity="1.000000" />
<path d="M 167.892578 98.335938 L 167.892578 97.412109 L 174.729980 97.412109 L 174.729980 98.335938 Z " fill="rgb(0, 0, 0)" fill-opacity="1.000000" />
<path d="M 174.892578 98.335938 L 174.892578 97.412109 L 181.729980 97.412109 L 181.729980 98.335938 Z " fill="rgb(0, 0, 0)" fill-opacity="1.000000" />
<path d="M 181.892578 98.335938 L 181.892578 97.412109 L 188.729980 97.412109 L 188.729980 98.335938 Z " fill="rgb(0, 0, 0)" fill-opacity="1.000000" />
<path d="M 188.892578 98.335938 L 188.892578 97.412109 L 195.729980 97.412109 L 195.729980 98.335938 Z " fill="rgb(0, 0, 0)" fill-opacity="1.000000" />
<path d="M 195.892578 98.335938 L 195.892578 97.412109 L 202.729980 97.412109 L 202.729980 98.335938 Z " fill="rgb(0, 0, 0)" fill-opacity="1.000000" />
<path d="M 202.892578 98.335938 L 202.892578 97.412109 L 209.729980 97.412109 L 209.729980 98.335938 Z " fill="rgb(0, 0, 0)" fill-opacity="1.000000" />
<path d="M 209.892578 98.335938 L 209.892578 97.412109 L 216.729980 97.412109 L 216.729980 98.335938 Z " fill="rgb(0, 0, 0)" fill-opacity="1.000000" />
<path d="M 216.892578 98.335938 L 216.892578 97.412109 L 223.729980 97.412109 L 223.729980 98.335938 Z " fill="rgb(0, 0, 0)" fill-opacity="1.000000" />
<path d="M 223.892578 98.335938 L 223.892578 97.412109 L 230.729980 97.412109 L 230.729980 98.335938 Z " fill="rgb(0, 0, 0)" fill-opacity="1.000000" />
<path d="M 230.892578 98.335938 L 230.892578 97.412109 L 237.729980 97.412109 L 237.729980 98.335938 Z " fill="rgb(0, 0, 0)" fill-opacity="1.000000" />
<path d="M 237.892578 98.335938 L 237.892578 97.412109 L 244.729980 97.412109 L 244.729980 98.335938 Z " fill="rgb(0, 0, 0)" fill-opacity="1.000000" />
<path d="M 247.878906 104.319336 L 247.878906 98.335938 L 244.892578 98.335938 L 244.892578 97.412109 L 251.729980 97.412109 L 251.729980 98.335938 L 248.738281 98.335938 L 248.738281 104.319336 Z " fill="rgb(0, 0, 0)" fill-opacity="1.000000" />
<path d="M 251.892578 98.335938 L 251.892578 97.412109 L 258.729980 97.412109 L 258.729980 98.335938 Z " fill="rgb(0, 0, 0)" fill-opacity="1.000000" />
<path d="M 258.892578 98.335938 L 258.892578 97.412109 L 265.729980 97.412109 L 265.729980 98.335938 Z " fill="rgb(0, 0, 0)" fill-opacity="1.000000" />
<path d="M 265.892578 98.335938 L 265.892578 97.412109 L 272.729980 97.412109 L 272.729980 98.335938 Z " fill="rgb(0, 0, 0)" fill-opacity="1.000000" />
<path d="M 272.892578 98.335938 L 272.892578 97.412109 L 279.729980 97.412109 L 279.729980 98.335938 Z " fill="rgb(0, 0, 0)" fill-opacity="1.000000" />
<path d="M 279.892578 98.335938 L 279.892578 97.412109 L 286.729980 97.412109 L 286.729980 98.335938 Z " fill="rgb(0, 0, 0)" fill-opacity="1.000000" />
<path d="M 286.892578 98.335938 L 286.892578 97.412109 L 293.729980 97.412109 L 293.729980 98.335938 Z " fill="rgb(0, 0, 0)" fill-opacity="1.000000" />
<path d="M 293.892578 98.335938 L 293.892578 97.412109 L 300.729980 97.412109 L 300.729980 98.335938 Z " fill="rgb(0, 0, 0)" fill-opacity="1.000000" />
<path d="M 300.892578 98.335938 L 300.892578 97.412109 L 307.729980 97.412109 L 307.729980 98.335938 Z " fill="rgb(0, 0, 0)" fill-opacity="1.000000" />
<path d="M 307.892578 98.335938 L 307.892578 97.412109 L 314.729980 97.412109 L 314.729980 98.335938 Z " fill="rgb(0, 0, 0)" fill-opacity="1.000000" />
<path d="M 314.892578 98.335938 L 314.892578 97.412109 L 321.729980 97.412109 L 321.729980 98.335938 Z " fill="rgb(0, 0, 0)" fill-opacity="1.000000" />
<path d="M 321.892578 98.335938 L 321.892578 97.412109 L 328.729980 97.412109 L 328.729980 98.335938 Z " fill="rgb(0, 0, 0)" fill-opacity="1.000000" />
<path d="M 331.878906 104.319336 L 331.878906 98.335938 L 328.892578 98.335938 L 328.892578 97.412109 L 332.738281 97.412109 L 332.738281 104.319336 Z " fill="rgb(0, 0, 0)" fill-opacity="1.000000" />
<path d="M 345.878906 104.319336 L 345.878906 90.300781 L 346.738281 90.300781 L 346.738281 104.319336 Z " fill="rgb(0, 0, 0)" fill-opacity="1.000000" />
<path d="M 6.892578 85.335938 L 6.892578 84.412109 L 13.729980 84.412109 L 13.729980 85.335938 Z " fill="rgb(0, 0, 0)" fill-opacity="1.000000" />
<path d="M 13.892578 85.335938 L 13.892578 84.412109 L 20.729980 84.412109 L 20.729980 85.335938 Z " fill="rgb(0, 0, 0)" fill-opacity="1.000000" />
<path d="M 20.892578 85.335938 L 20.892578 84.412109 L 27.729980 84.412109 L 27.729980 85.335938 Z " fill="rgb(0, 0, 0)" fill-opacity="1.000000" />
<path d="M 27.892578 85.335938 L 27.892578 84.412109 L 34.729980 84.412109 L 34.729980 85.335938 Z " fill="rgb(0, 0, 0)" fill-opacity="1.000000" />
<path d="M 34.892578 85.335938 L 34.892578 84.412109 L 41.729980 84.412109 L 41.729980 85.335938 Z " fill="rgb(0, 0, 0)" fill-opacity="1.000000" />
<path d="M 41.892578 85.335938 L 41.892578 84.412109 L 48.729980 84.412109 L 48.729980 85.335938 Z " fill="rgb(0, 0, 0)" fill-opacity="1.000000" />
<path d="M 48.892578 85.335938 L 48.892578 84.412109 L 55.729980 84.412109 L 55.729980 85.335938 Z " fill="rgb(0, 0, 0)" fill-opacity="1.000000" />
<path d="M 55.892578 85.335938 L 55.892578 84.412109 L 62.729980 84.412109 L 62.729980 85.335938 Z " fill="rgb(0, 0, 0)" fill-opacity="1.000000" />
<path d="M 62.892578 85.335938 L 62.892578 84.412109 L 69.729980 84.412109 L 69.729980 85.335938 Z " fill="rgb(0, 0, 0)" fill-opacity="1.000000" />
<path d="M 69.892578 85.335938 L 69.892578 84.412109 L 76.729980 84.412109 L 76.729980 85.335938 Z " fill="rgb(0, 0, 0)" fill-opacity="1.000000" />
<path d="M 76.892578 85.335938 L 76.892578 84.412109 L 83.729980 84.412109 L 83.729980 85.335938 Z " fill="rgb(0, 0, 0)" fill-opacity="1.000000" />
<path d="M 83.892578 85.335938 L 83.892578 84.412109 L 90.729980 84.412109 L 90.729980 85.335938 Z " fill="rgb(0, 0, 0)" fill-opacity="1.000000" />
<path d="M 90.892578 85.335938 L 90.892578 84.412109 L 97.729980 84.412109 L 97.729980 85.335938 Z " fill="rgb(0, 0, 0)" fill-opacity="1.000000" />
<path d="M 97.892578 85.335938 L 97.892578 84.412109 L 104.729980 84.412109 L 104.729980 85.335938 Z " fill="rgb(0, 0, 0)" fill-opacity="1.000000" />
<path d="M 104.892578 85.335938 L 104.892578 84.412109 L 111.729980 84.412109 L 111.729980 85.335938 Z " fill="rgb(0, 0, 0)" fill-opacity="1.000000" />
<path d="M 111.892578 85.335938 L 111.892578 84.412109 L 118.729980 84.412109 L 118.729980 85.335938 Z " fill="rgb(0, 0, 0)" fill-opacity="1.000000" />
<path d="M 118.892578 85.335938 L 118.892578 84.412109 L 125.729980 84.412109 L 125.729980 85.335938 Z " fill="rgb(0, 0, 0)" fill-opacity="1.000000" />
<path d="M 125.892578 85.335938 L 125.892578 84.412109 L 132.729980 84.412109 L 132.729980 85.335938 Z " fill="rgb(0, 0, 0)" fill-opacity="1.000000" />
<path d="M 132.892578 85.335938 L 132.892578 84.412109 L 139.729980 84.412109 L 139.729980 85.335938 Z " fill="rgb(0, 0, 0)" fill-opacity="1.000000" />
<path d="M 139.892578 85.335938 L 139.892578 84.412109 L 146.729980 84.412109 L 146.729980 85.335938 Z " fill="rgb(0, 0, 0)" fill-opacity="1.000000" />
<path d="M 146.892578 85.335938 L 146.892578 84.412109 L 153.729980 84.412109 L 153.729980 85.335938 Z " fill="rgb(0, 0, 0)" fill-opacity="1.000000" />
<path d="M 153.892578 85.335938 L 153.892578 84.412109 L 160.729980 84.412109 L 160.729980 85.335938 Z " fill="rgb(0, 0, 0)" fill-opacity="1.000000" />
<path d="M 160.892578 85.335938 L 160.892578 84.412109 L 167.729980 84.412109 L 167.729980 85.335938 Z " fill="rgb(0, 0, 0)" fill-opacity="1.000000" />
<path d="M 167.892578 85.335938 L 167.892578 84.412109 L 174.729980 84.412109 L 174.729980 85.335938 Z " fill="rgb(0, 0, 0)" fill-opacity="1.000000" />
<path d="M 174.892578 85.335938 L 174.892578 84.412109 L 181.729980 84.412109 L 181.729980 85.335938 Z " fill="rgb(0, 0, 0)" fill-opacity="1.000000" />
<path d="M 181.892578 85.335938 L 181.892578 84.412109 L 188.729980 84.412109 L 188.729980 85.335938 Z " fill="rgb(0, 0, 0)" fill-opacity="1.000000" />
<path d="M 188.892578 85.335938 L 188.892578 84.412109 L 195.729980 84.412109 L 195.729980 85.335938 Z " fill="rgb(0, 0, 0)" fill-opacity="1.000000" />
<path d="M 195.892578 85.335938 L 195.892578 84.412109 L 202.729980 84.412109 L 202.729980 85.335938 Z " fill="rgb(0, 0, 0)" fill-opacity="1.000000" />
<path d="M 202.892578 85.335938 L 202.892578 84.412109 L 209.729980 84.412109 L 209.729980 85.335938 Z " fill="rgb(0, 0, 0)" fill-opacity="1.000000" />
<path d="M 209.892578 85.335938 L 209.892578 84.412109 L 216.729980 84.412109 L 216.729980 85.335938 Z " fill="rgb(0, 0, 0)" fill-opacity="1.000000" />
<path d="M 216.892578 85.335938 L 216.892578 84.412109 L 223.729980 84.412109 L 223.729980 85.335938 Z " fill="rgb(0, 0, 0)" fill-opacity="1.000000" />
<path d="M 223.892578 85.335938 L 223.892578 84.412109 L 230.729980 84.412109 L 230.729980 85.335938 Z " fill="rgb(0, 0, 0)" fill-opacity="1.000000" />
<path d="M 230.892578 85.335938 L 230.892578 84.412109 L 237.729980 84.412109 L 237.729980 85.335938 Z " fill="rgb(0, 0, 0)" fill-opacity="1.000000" />
<path d="M 237.892578 85.335938 L 237.892578 84.412109 L 244.729980 84.412109 L 244.729980 85.335938 Z " fill="rgb(0, 0, 0)" fill-opacity="1.000000" />
<path d="M 244.892578 85.335938 L 244.892578 84.412109 L 251.729980 84.412109 L 251.729980 85.335938 Z " fill="rgb(0, 0, 0)" fill-opacity="1.000000" />
<path d="M 251.892578 85.335938 L 251.892578 84.412109 L 258.729980 84.412109 L 258.729980 85.335938 Z " fill="rgb(0, 0, 0)" fill-opacity="1.000000" />
<path d="M 258.892578 85.335938 L 258.892578 84.412109 L 265.729980 84.412109 L 265.729980 85.335938 Z " fill="rgb(0, 0, 0)" fill-opacity="1.000000" />
<path d="M 265.892578 85.335938 L 265.892578 84.412109 L 272.729980 84.412109 L 272.729980 85.335938 Z " fill="rgb(0, 0, 0)" fill-opacity="1.000000" />
<path d="M 272.892578 85.335938 L 272.892578 84.412109 L 279.729980 84.412109 L 279.729980 85.335938 Z " fill="rgb(0, 0, 0)" fill-opacity="1.000000" />
<path d="M 279.892578 85.335938 L 279.892578 84.412109 L 286.729980 84.412109 L 286.729980 85.335938 Z " fill="rgb(0, 0, 0)" fill-opacity="1.000000" />
<path d="M 286.892578 85.335938 L 286.892578 84.412109 L 293.729980 84.412109 L 293.729980 85.335938 Z " fill="rgb(0, 0, 0)" fill-opacity="1.000000" />
<path d="M 293.892578 85.335938 L 293.892578 84.412109 L 300.729980 84.412109 L 300.729980 85.335938 Z " fill="rgb(0, 0, 0)" fill-opacity="1.000000" />
<path d="M 300.892578 85.335938 L 300.892578 84.412109 L 307.729980 84.412109 L 307.729980 85.335938 Z " fill="rgb(0, 0, 0)" fill-opacity="1.000000" />
<path d="M 307.892578 85.335938 L 307.892578 84.412109 L 314.729980 84.412109 L 314.729980 85.335938 Z " fill="rgb(0, 0, 0)" fill-opacity="1.000000" />
<path d="M 314.892578 85.335938 L 314.892578 84.412109 L 321.729980 84.412109 L 321.729980 85.335938 Z " fill="rgb(0, 0, 0)" fill-opacity="1.000000" />
<path d="M 321.892578 85.335938 L 321.892578 84.412109 L 328.729980 84.412109 L 328.729980 85.335938 Z " fill="rgb(0, 0, 0)" fill-opacity="1.000000" />
<path d="M 328.892578 85.335938 L 328.892578 84.412109 L 335.729980 84.412109 L 335.729980 85.335938 Z " fill="rgb(0, 0, 0)" fill-opacity="1.000000" />
<path d="M 335.892578 85.335938 L 335.892578 84.412109 L 342.729980 84.412109 L 342.729980 85.335938 Z " fill="rgb(0, 0, 0)" fill-opacity="1.000000" />
<path d="M 345.878906 91.319336 L 345.878906 85.335938 L 342.892578 85.335938 L 342.892578 84.412109 L 345.878906 84.412109 L 345.878906 77.300781 L 346.738281 77.300781 L 346.738281 91.319336 Z " fill="rgb(0, 0, 0)" fill-opacity="1.000000" />
<path d="M 19.435547 41.254883 L 19.435547 42.355957 Q 18.941406 42.039062 18.444580 41.877930 Q 17.947754 41.716797 17.442871 41.716797 Q 16.674805 41.716797 16.229004 42.073975 Q 15.783203 42.431152 15.783203 43.038086 Q 15.783203 43.569824 16.075928 43.849121 Q 16.368652 44.128418 17.168945 44.316406 L 17.738281 44.445312 Q 18.866211 44.708496 19.381836 45.272461 Q 19.897461 45.836426 19.897461 46.808594 Q 19.897461 47.952637 19.188477 48.554199 Q 18.479492 49.155762 17.125977 49.155762 Q 16.562012 49.155762 15.992676 49.034912 Q 15.423340 48.914062 14.848633 48.672363 L 14.848633 47.517578 Q 15.466309 47.909668 16.016846 48.092285 Q 16.567383 48.274902 17.125977 48.274902 Q 17.947754 48.274902 18.404297 47.906982 Q 18.860840 47.539062 18.860840 46.878418 Q 18.860840 46.276855 18.546631 45.959961 Q 18.232422 45.643066 17.453613 45.471191 L 16.873535 45.336914 Q 15.756348 45.084473 15.251465 44.574219 Q 14.746582 44.063965 14.746582 43.204590 Q 14.746582 42.130371 15.468994 41.483154 Q 16.191406 40.835938 17.389160 40.835938 Q 17.851074 40.835938 18.361328 40.940674 Q 18.871582 41.045410 19.435547 41.254883 Z " fill="rgb(0, 0, 0)" fill-opacity="1.000000" />
<path d="M 79.878906 65.319336 L 79.878906 51.300781 L 80.738281 51.300781 L 80.738281 65.319336 Z " fill="rgb(0, 0, 0)" fill-opacity="1.000000" />
<path d="M 79.878906 72.335938 L 79.878906 64.300781 L 80.738281 64.300781 L 80.738281 71.412109 L 83.729980 71.412109 L 83.729980 72.335938 Z " fill="rgb(0, 0, 0)" fill-opacity="1.000000" />
<path d="M 83.892578 72.335938 L 83.892578 71.412109 L 90.729980 71.412109 L 90.729980 72.335938 Z " fill="rgb(0, 0, 0)" fill-opacity="1.000000" />
<path d="M 90.892578 72.335938 L 90.892578 71.412109 L 97.729980 71.412109 L 97.729980 72.335938 Z " fill="rgb(0, 0, 0)" fill-opacity="1.000000" />
<path d="M 97.892578 72.335938 L 97.892578 71.412109 L 104.729980 71.412109 L 104.729980 72.335938 Z " fill="rgb(0, 0, 0)" fill-opacity="1.000000" />
<path d="M 104.892578 72.335938 L 104.892578 71.412109 L 111.729980 71.412109 L 111.729980 72.335938 Z " fill="rgb(0, 0, 0)" fill-opacity="1.000000" />
<path d="M 111.892578 72.335938 L 111.892578 71.412109 L 118.729980 71.412109 L 118.729980 72.335938 Z " fill="rgb(0, 0, 0)" fill-opacity="1.000000" />
<path d="M 118.892578 72.335938 L 118.892578 71.412109 L 125.729980 71.412109 L 125.729980 72.335938 Z " fill="rgb(0, 0, 0)" fill-opacity="1.000000" />
<path d="M 125.892578 72.335938 L 125.892578 71.412109 L 132.729980 71.412109 L 132.729980 72.335938 Z " fill="rgb(0, 0, 0)" fill-opacity="1.000000" />
<path d="M 132.892578 72.335938 L 132.892578 71.412109 L 139.729980 71.412109 L 139.729980 72.335938 Z " fill="rgb(0, 0, 0)" fill-opacity="1.000000" />
<path d="M 139.892578 72.335938 L 139.892578 71.412109 L 146.729980 71.412109 L 146.729980 72.335938 Z " fill="rgb(0, 0, 0)" fill-opacity="1.000000" />
<path d="M 146.892578 72.335938 L 146.892578 71.412109 L 153.729980 71.412109 L 153.729980 72.335938 Z " fill="rgb(0, 0, 0)" fill-opacity="1.000000" />
<path d="M 153.892578 72.335938 L 153.892578 71.412109 L 160.729980 71.412109 L 160.729980 72.335938 Z " fill="rgb(0, 0, 0)" fill-opacity="1.000000" />
<path d="M 160.892578 72.335938 L 160.892578 71.412109 L 167.729980 71.412109 L 167.729980 72.335938 Z " fill="rgb(0, 0, 0)" fill-opacity="1.000000" />
<path d="M 167.892578 72.335938 L 167.892578 71.412109 L 174.729980 71.412109 L 174.729980 72.335938 Z " fill="rgb(0, 0, 0)" fill-opacity="1.000000" />
<path d="M 174.892578 72.335938 L 174.892578 71.412109 L 181.729980 71.412109 L 181.729980 72.335938 Z " fill="rgb(0, 0, 0)" fill-opacity="1.000000" />
<path d="M 181.892578 72.335938 L 181.892578 71.412109 L 188.729980 71.412109 L 188.729980 72.335938 Z " fill="rgb(0, 0, 0)" fill-opacity="1.000000" />
<path d="M 188.892578 72.335938 L 188.892578 71.412109 L 195.729980 71.412109 L 195.729980 72.335938 Z " fill="rgb(0, 0, 0)" fill-opacity="1.000000" />
<path d="M 195.892578 72.335938 L 195.892578 71.412109 L 202.729980 71.412109 L 202.729980 72.335938 Z " fill="rgb(0, 0, 0)" fill-opacity="1.000000" />
<path d="M 202.892578 72.335938 L 202.892578 71.412109 L 205.878906 71.412109 L 205.878906 64.300781 L 206.738281 64.300781 L 206.738281 71.412109 L 209.729980 71.412109 L 209.729980 72.335938 Z " fill="rgb(0, 0, 0)" fill-opacity="1.000000" />
<path d="M 209.892578 72.335938 L 209.892578 71.412109 L 216.729980 71.412109 L 216.729980 72.335938 Z " fill="rgb(0, 0, 0)" fill-opacity="1.000000" />
<path d="M 216.892578 72.335938 L 216.892578 71.412109 L 223.729980 71.412109 L 223.729980 72.335938 Z " fill="rgb(0, 0, 0)" fill-opacity="1.000000" />
<path d="M 223.892578 72.335938 L 223.892578 71.412109 L 230.729980 71.412109 L 230.729980 72.335938 Z " fill="rgb(0, 0, 0)" fill-opacity="1.000000" />
<path d="M 230.892578 72.335938 L 230.892578 71.412109 L 237.729980 71.412109 L 237.729980 72.335938 Z " fill="rgb(0, 0, 0)" fill-opacity="1.000000" />
<path d="M 237.892578 72.335938 L 237.892578 71.412109 L 244.729980 71.412109 L 244.729980 72.335938 Z " fill="rgb(0, 0, 0)" fill-opacity="1.000000" />
<path d="M 244.892578 72.335938 L 244.892578 71.412109 L 251.729980 71.412109 L 251.729980 72.335938 Z " fill="rgb(0, 0, 0)" fill-opacity="1.000000" />
<path d="M 251.892578 72.335938 L 251.892578 71.412109 L 258.729980 71.412109 L 258.729980 72.335938 Z " fill="rgb(0, 0, 0)" fill-opacity="1.000000" />
<path d="M 258.892578 72.335938 L 258.892578 71.412109 L 265.729980 71.412109 L 265.729980 72.335938 Z " fill="rgb(0, 0, 0)" fill-opacity="1.000000" />
<path d="M 265.892578 72.335938 L 265.892578 71.412109 L 272.729980 71.412109 L 272.729980 72.335938 Z " fill="rgb(0, 0, 0)" fill-opacity="1.000000" />
<path d="M 272.892578 72.335938 L 272.892578 71.412109 L 279.729980 71.412109 L 279.729980 72.335938 Z " fill="rgb(0, 0, 0)" fill-opacity="1.000000" />
<path d="M 279.892578 72.335938 L 279.892578 71.412109 L 286.729980 71.412109 L 286.729980 72.335938 Z " fill="rgb(0, 0, 0)" fill-opacity="1.000000" />
<path d="M 286.892578 72.335938 L 286.892578 71.412109 L 293.729980 71.412109 L 293.729980 72.335938 Z " fill="rgb(0, 0, 0)" fill-opacity="1.000000" />
<path d="M 293.892578 72.335938 L 293.892578 71.412109 L 300.729980 71.412109 L 300.729980 72.335938 Z " fill="rgb(0, 0, 0)" fill-opacity="1.000000" />
<path d="M 300.892578 72.335938 L 300.892578 71.412109 L 307.729980 71.412109 L 307.729980 72.335938 Z " fill="rgb(0, 0, 0)" fill-opacity="1.000000" />
<path d="M 307.892578 72.335938 L 307.892578 71.412109 L 314.729980 71.412109 L 314.729980 72.335938 Z " fill="rgb(0, 0, 0)" fill-opacity="1.000000" />
<path d="M 314.892578 72.335938 L 314.892578 71.412109 L 321.729980 71.412109 L 321.729980 72.335938 Z " fill="rgb(0, 0, 0)" fill-opacity="1.000000" />
<path d="M 321.892578 72.335938 L 321.892578 71.412109 L 328.729980 71.412109 L 328.729980 72.335938 Z " fill="rgb(0, 0, 0)" fill-opacity="1.000000" />
<path d="M 328.892578 72.335938 L 328.892578 71.412109 L 331.878906 71.412109 L 331.878906 64.300781 L 332.738281 64.300781 L 332.738281 72.335938 Z " fill="rgb(0, 0, 0)" fill-opacity="1.000000" />
<path d="M 345.878906 78.319336 L 345.878906 64.300781 L 346.738281 64.300781 L 346.738281 78.319336 Z " fill="rgb(0, 0, 0)" fill-opacity="1.000000" />
<path d="M 205.878906 65.319336 L 205.878906 51.300781 L 206.738281 51.300781 L 206.738281 65.319336 Z " fill="rgb(0, 0, 0)" fill-opacity="1.000000" />
<path d="M 331.878906 65.319336 L 331.878906 51.300781 L 332.738281 51.300781 L 332.738281 65.319336 Z " fill="rgb(0, 0, 0)" fill-opacity="1.000000" />
<path d="M 345.878906 65.319336 L 345.878906 51.300781 L 346.738281 51.300781 L 346.738281 65.319336 Z " fill="rgb(0, 0, 0)" fill-opacity="1.000000" />
<path d="M 24.308594 43.677246 Q 23.556641 43.677246 23.169922 44.262695 Q 22.783203 44.848145 22.783203 45.997559 Q 22.783203 47.141602 23.169922 47.729736 Q 23.556641 48.317871 24.308594 48.317871 Q 25.065918 48.317871 25.452637 47.729736 Q 25.839355 47.141602 25.839355 45.997559 Q 25.839355 44.848145 25.452637 44.262695 Q 25.065918 43.677246 24.308594 43.677246 Z M 24.308594 42.839355 Q 25.560059 42.839355 26.223389 43.650391 Q 26.886719 44.461426 26.886719 45.997559 Q 26.886719 47.539062 26.226074 48.347412 Q 25.565430 49.155762 24.308594 49.155762 Q 23.057129 49.155762 22.396484 48.347412 Q 21.735840 47.539062 21.735840 45.997559 Q 21.735840 44.461426 22.396484 43.650391 Q 23.057129 42.839355 24.308594 42.839355 Z " fill="rgb(0, 0, 0)" fill-opacity="1.000000" />
<path d="M 33.709473 40.642578 L 33.709473 41.464355 L 32.586914 41.464355 Q 32.055176 41.464355 31.848389 41.681885 Q 31.641602 41.899414 31.641602 42.452637 L 31.641602 42.984375 L 33.709473 42.984375 L 33.709473 43.752441 L 31.641602 43.752441 L 31.641602 49.000000 L 30.653320 49.000000 L 30.653320 43.752441 L 29.047363 43.752441 L 29.047363 42.984375 L 30.653320 42.984375 L 30.653320 42.565430 Q 30.653320 41.577148 31.107178 41.109863 Q 31.561035 40.642578 32.522461 40.642578 Z " fill="rgb(0, 0, 0)" fill-opacity="1.000000" />
<path d="M 38.297852 41.276367 L 38.297852 42.984375 L 40.542969 42.984375 L 40.542969 43.752441 L 38.297852 43.752441 L 38.297852 47.018066 Q 38.297852 47.684082 38.550293 47.947266 Q 38.802734 48.210449 39.431152 48.210449 L 40.542969 48.210449 L 40.542969 49.000000 L 39.334473 49.000000 Q 38.222656 49.000000 37.766113 48.554199 Q 37.309570 48.108398 37.309570 47.018066 L 37.309570 43.752441 L 35.703613 43.752441 L 35.703613 42.984375 L 37.309570 42.984375 L 37.309570 41.276367 Z " fill="rgb(0, 0, 0)" fill-opacity="1.000000" />
<path d="M 42.000000 42.984375 L 42.977539 42.984375 L 44.024902 47.845215 L 44.884277 44.740723 L 45.727539 44.740723 L 46.597656 47.845215 L 47.645020 42.984375 L 48.622559 42.984375 L 47.215332 49.000000 L 46.270020 49.000000 L 45.308594 45.702148 L 44.352539 49.000000 L 43.407227 49.000000 Z " fill="rgb(0, 0, 0)" fill-opacity="1.000000" />
<path d="M 52.770508 45.976074 L 52.442871 45.976074 Q 51.578125 45.976074 51.140381 46.279541 Q 50.702637 46.583008 50.702637 47.184570 Q 50.702637 47.727051 51.030273 48.027832 Q 51.357910 48.328613 51.937988 48.328613 Q 52.754395 48.328613 53.221680 47.761963 Q 53.688965 47.195312 53.694336 46.196289 L 53.694336 45.976074 Z M 54.687988 45.567871 L 54.687988 49.000000 L 53.694336 49.000000 L 53.694336 48.108398 Q 53.377441 48.645508 52.896729 48.900635 Q 52.416016 49.155762 51.728516 49.155762 Q 50.810059 49.155762 50.262207 48.637451 Q 49.714355 48.119141 49.714355 47.249023 Q 49.714355 46.244629 50.388428 45.723633 Q 51.062500 45.202637 52.367676 45.202637 L 53.694336 45.202637 L 53.694336 45.046875 Q 53.688965 44.327148 53.329102 44.002197 Q 52.969238 43.677246 52.179688 43.677246 Q 51.674805 43.677246 51.159180 43.822266 Q 50.643555 43.967285 50.154785 44.246582 L 50.154785 43.258301 Q 50.702637 43.048828 51.204834 42.944092 Q 51.707031 42.839355 52.179688 42.839355 Q 52.926270 42.839355 53.455322 43.059570 Q 53.984375 43.279785 54.312012 43.720215 Q 54.516113 43.988770 54.602051 44.383545 Q 54.687988 44.778320 54.687988 45.567871 Z " fill="rgb(0, 0, 0)" fill-opacity="1.000000" />
<path d="M 62.203613 44.225098 Q 61.886719 43.978027 61.559082 43.865234 Q 61.231445 43.752441 60.839355 43.752441 Q 59.915527 43.752441 59.426758 44.332520 Q 58.937988 44.912598 58.937988 46.008301 L 58.937988 49.000000 L 57.944336 49.000000 L 57.944336 42.984375 L 58.937988 42.984375 L 58.937988 44.160645 Q 59.185059 43.521484 59.697998 43.180420 Q 60.210938 42.839355 60.914551 42.839355 Q 61.279785 42.839355 61.596680 42.930664 Q 61.913574 43.021973 62.203613 43.215332 Z " fill="rgb(0, 0, 0)" fill-opacity="1.000000" />
<path d="M 69.015625 45.498047 L 69.015625 45.981445 L 64.734863 45.981445 L 64.734863 46.013672 Q 64.691895 47.243652 65.204834 47.780762 Q 65.717773 48.317871 66.652344 48.317871 Q 67.125000 48.317871 67.640625 48.167480 Q 68.156250 48.017090 68.741699 47.710938 L 68.741699 48.693848 Q 68.177734 48.924805 67.654053 49.040283 Q 67.130371 49.155762 66.641602 49.155762 Q 65.239746 49.155762 64.450195 48.315186 Q 63.660645 47.474609 63.660645 45.997559 Q 63.660645 44.558105 64.434082 43.698730 Q 65.207520 42.839355 66.496582 42.839355 Q 67.645996 42.839355 68.309326 43.618164 Q 68.972656 44.396973 69.015625 45.498047 Z M 68.027344 45.208008 Q 67.962891 44.584961 67.573486 44.131104 Q 67.184082 43.677246 66.453613 43.677246 Q 65.739258 43.677246 65.277344 44.149902 Q 64.815430 44.622559 64.772461 45.213379 Z " fill="rgb(0, 0, 0)" fill-opacity="1.000000" />
<path d="M 79.878906 52.319336 L 79.878906 38.300781 L 80.738281 38.300781 L 80.738281 52.319336 Z " fill="rgb(0, 0, 0)" fill-opacity="1.000000" />
<path d="M 108.308594 41.937012 L 107.164551 46.040527 L 109.452637 46.040527 Z M 107.653320 40.980957 L 108.969238 40.980957 L 111.423828 49.000000 L 110.301270 49.000000 L 109.710449 46.910645 L 106.901367 46.910645 L 106.321289 49.000000 L 105.198730 49.000000 Z " fill="rgb(0, 0, 0)" fill-opacity="1.000000" />
<path d="M 114.014160 48.242676 L 114.014160 51.288086 L 113.020508 51.288086 L 113.020508 42.984375 L 114.014160 42.984375 L 114.014160 43.752441 Q 114.261230 43.306641 114.672119 43.072998 Q 115.083008 42.839355 115.620117 42.839355 Q 116.710449 42.839355 117.330811 43.682617 Q 117.951172 44.525879 117.951172 46.019043 Q 117.951172 47.485352 117.328125 48.320557 Q 116.705078 49.155762 115.620117 49.155762 Q 115.072266 49.155762 114.661377 48.922119 Q 114.250488 48.688477 114.014160 48.242676 Z M 116.914551 45.997559 Q 116.914551 44.848145 116.552002 44.262695 Q 116.189453 43.677246 115.475098 43.677246 Q 114.755371 43.677246 114.384766 44.265381 Q 114.014160 44.853516 114.014160 45.997559 Q 114.014160 47.136230 114.384766 47.727051 Q 114.755371 48.317871 115.475098 48.317871 Q 116.189453 48.317871 116.552002 47.732422 Q 116.914551 47.146973 116.914551 45.997559 Z " fill="rgb(0, 0, 0)" fill-opacity="1.000000" />
<path d="M 121.014160 48.242676 L 121.014160 51.288086 L 120.020508 51.288086 L 120.020508 42.984375 L 121.014160 42.984375 L 121.014160 43.752441 Q 121.261230 43.306641 121.672119 43.072998 Q 122.083008 42.839355 122.620117 42.839355 Q 123.710449 42.839355 124.330811 43.682617 Q 124.951172 44.525879 124.951172 46.019043 Q 124.951172 47.485352 124.328125 48.320557 Q 123.705078 49.155762 122.620117 49.155762 Q 122.072266 49.155762 121.661377 48.922119 Q 121.250488 48.688477 121.014160 48.242676 Z M 123.914551 45.997559 Q 123.914551 44.848145 123.552002 44.262695 Q 123.189453 43.677246 122.475098 43.677246 Q 121.755371 43.677246 121.384766 44.265381 Q 121.014160 44.853516 121.014160 45.997559 Q 121.014160 47.136230 121.384766 47.727051 Q 121.755371 48.317871 122.475098 48.317871 Q 123.189453 48.317871 123.552002 47.732422 Q 123.914551 47.146973 123.914551 45.997559 Z " fill="rgb(0, 0, 0)" fill-opacity="1.000000" />
<path d="M 129.861816 46.824707 Q 129.861816 47.490723 130.106201 47.829102 Q 130.350586 48.167480 130.828613 48.167480 L 131.983398 48.167480 L 131.983398 49.000000 L 130.731934 49.000000 Q 129.845703 49.000000 129.359619 48.433350 Q 128.873535 47.866699 128.873535 46.824707 L 128.873535 41.383789 L 127.289062 41.383789 L 127.289062 40.610352 L 129.861816 40.610352 Z " fill="rgb(0, 0, 0)" fill-opacity="1.000000" />
<path d="M 134.697266 43.005859 L 137.227051 43.005859 L 137.227051 48.231934 L 139.187500 48.231934 L 139.187500 49.000000 L 134.278320 49.000000 L 134.278320 48.231934 L 136.238770 48.231934 L 136.238770 43.773926 L 134.697266 43.773926 Z M 136.238770 40.669434 L 137.227051 40.669434 L 137.227051 41.915527 L 136.238770 41.915527 Z " fill="rgb(0, 0, 0)" fill-opacity="1.000000" />
<path d="M 145.698730 48.693848 Q 145.301270 48.924805 144.879639 49.040283 Q 144.458008 49.155762 144.017578 49.155762 Q 142.621094 49.155762 141.834229 48.317871 Q 141.047363 47.479980 141.047363 45.997559 Q 141.047363 44.515137 141.834229 43.677246 Q 142.621094 42.839355 144.017578 42.839355 Q 144.452637 42.839355 144.866211 42.952148 Q 145.279785 43.064941 145.698730 43.301270 L 145.698730 44.337891 Q 145.306641 43.988770 144.911865 43.833008 Q 144.517090 43.677246 144.017578 43.677246 Q 143.088379 43.677246 142.588867 44.278809 Q 142.089355 44.880371 142.089355 45.997559 Q 142.089355 47.109375 142.591553 47.713623 Q 143.093750 48.317871 144.017578 48.317871 Q 144.533203 48.317871 144.941406 48.159424 Q 145.349609 48.000977 145.698730 47.667969 Z " fill="rgb(0, 0, 0)" fill-opacity="1.000000" />
<path d="M 150.770508 45.976074 L 150.442871 45.976074 Q 149.578125 45.976074 149.140381 46.279541 Q 148.702637 46.583008 148.702637 47.184570 Q 148.702637 47.727051 149.030273 48.027832 Q 149.357910 48.328613 149.937988 48.328613 Q 150.754395 48.328613 151.221680 47.761963 Q 151.688965 47.195312 151.694336 46.196289 L 151.694336 45.976074 Z M 152.687988 45.567871 L 152.687988 49.000000 L 151.694336 49.000000 L 151.694336 48.108398 Q 151.377441 48.645508 150.896729 48.900635 Q 150.416016 49.155762 149.728516 49.155762 Q 148.810059 49.155762 148.262207 48.637451 Q 147.714355 48.119141 147.714355 47.249023 Q 147.714355 46.244629 148.388428 45.723633 Q 149.062500 45.202637 150.367676 45.202637 L 151.694336 45.202637 L 151.694336 45.046875 Q 151.688965 44.327148 151.329102 44.002197 Q 150.969238 43.677246 150.179688 43.677246 Q 149.674805 43.677246 149.159180 43.822266 Q 148.643555 43.967285 148.154785 44.246582 L 148.154785 43.258301 Q 148.702637 43.048828 149.204834 42.944092 Q 149.707031 42.839355 150.179688 42.839355 Q 150.926270 42.839355 151.455322 43.059570 Q 151.984375 43.279785 152.312012 43.720215 Q 152.516113 43.988770 152.602051 44.383545 Q 152.687988 44.778320 152.687988 45.567871 Z " fill="rgb(0, 0, 0)" fill-opacity="1.000000" />
<path d="M 157.297852 41.276367 L 157.297852 42.984375 L 159.542969 42.984375 L 159.542969 43.752441 L 157.297852 43.752441 L 157.297852 47.018066 Q 157.297852 47.684082 157.550293 47.947266 Q 157.802734 48.210449 158.431152 48.210449 L 159.542969 48.210449 L 159.542969 49.000000 L 158.334473 49.000000 Q 157.222656 49.000000 156.766113 48.554199 Q 156.309570 48.108398 156.309570 47.018066 L 156.309570 43.752441 L 154.703613 43.752441 L 154.703613 42.984375 L 156.309570 42.984375 L 156.309570 41.276367 Z " fill="rgb(0, 0, 0)" fill-opacity="1.000000" />
<path d="M 162.697266 43.005859 L 165.227051 43.005859 L 165.227051 48.231934 L 167.187500 48.231934 L 167.187500 49.000000 L 162.278320 49.000000 L 162.278320 48.231934 L 164.238770 48.231934 L 164.238770 43.773926 L 162.697266 43.773926 Z M 164.238770 40.669434 L 165.227051 40.669434 L 165.227051 41.915527 L 164.238770 41.915527 Z " fill="rgb(0, 0, 0)" fill-opacity="1.000000" />
<path d="M 171.308594 43.677246 Q 170.556641 43.677246 170.169922 44.262695 Q 169.783203 44.848145 169.783203 45.997559 Q 169.783203 47.141602 170.169922 47.729736 Q 170.556641 48.317871 171.308594 48.317871 Q 172.065918 48.317871 172.452637 47.729736 Q 172.839355 47.141602 172.839355 45.997559 Q 172.839355 44.848145 172.452637 44.262695 Q 172.065918 43.677246 171.308594 43.677246 Z M 171.308594 42.839355 Q 172.560059 42.839355 173.223389 43.650391 Q 173.886719 44.461426 173.886719 45.997559 Q 173.886719 47.539062 173.226074 48.347412 Q 172.565430 49.155762 171.308594 49.155762 Q 170.057129 49.155762 169.396484 48.347412 Q 168.735840 47.539062 168.735840 45.997559 Q 168.735840 44.461426 169.396484 43.650391 Q 170.057129 42.839355 171.308594 42.839355 Z " fill="rgb(0, 0, 0)" fill-opacity="1.000000" />
<path d="M 180.645020 45.272461 L 180.645020 49.000000 L 179.651367 49.000000 L 179.651367 45.272461 Q 179.651367 44.461426 179.366699 44.080078 Q 179.082031 43.698730 178.475098 43.698730 Q 177.782227 43.698730 177.408936 44.190186 Q 177.035645 44.681641 177.035645 45.600098 L 177.035645 49.000000 L 176.047363 49.000000 L 176.047363 42.984375 L 177.035645 42.984375 L 177.035645 43.886719 Q 177.298828 43.371094 177.750000 43.105225 Q 178.201172 42.839355 178.818848 42.839355 Q 179.737305 42.839355 180.191162 43.443604 Q 180.645020 44.047852 180.645020 45.272461 Z " fill="rgb(0, 0, 0)" fill-opacity="1.000000" />
<path d="M 205.878906 52.319336 L 205.878906 38.300781 L 206.738281 38.300781 L 206.738281 52.319336 Z " fill="rgb(0, 0, 0)" fill-opacity="1.000000" />
<path d="M 225.981934 44.955566 L 225.981934 48.108398 L 227.265625 48.108398 Q 228.210938 48.108398 228.613770 47.778076 Q 229.016602 47.447754 229.016602 46.690430 Q 229.016602 45.691406 228.592285 45.323486 Q 228.167969 44.955566 227.265625 44.955566 Z M 225.981934 41.872559 L 225.981934 44.074707 L 227.244141 44.074707 Q 228.028320 44.074707 228.380127 43.773926 Q 228.731934 43.473145 228.731934 43.016602 Q 228.731934 42.409668 228.385498 42.141113 Q 228.039062 41.872559 227.244141 41.872559 Z M 224.891602 40.980957 L 227.265625 40.980957 Q 228.495605 40.980957 229.161621 41.512695 Q 229.827637 42.044434 229.827637 43.016602 Q 229.827637 43.537598 229.475830 43.961914 Q 229.124023 44.386230 228.420410 44.493652 Q 229.209961 44.611816 229.658447 45.167725 Q 230.106934 45.723633 230.106934 46.797852 Q 230.106934 47.888184 229.392578 48.444092 Q 228.678223 49.000000 227.265625 49.000000 L 224.891602 49.000000 Z " fill="rgb(0, 0, 0)" fill-opacity="1.000000" />
<path d="M 234.770508 45.976074 L 234.442871 45.976074 Q 233.578125 45.976074 233.140381 46.279541 Q 232.702637 46.583008 232.702637 47.184570 Q 232.702637 47.727051 233.030273 48.027832 Q 233.357910 48.328613 233.937988 48.328613 Q 234.754395 48.328613 235.221680 47.761963 Q 235.688965 47.195312 235.694336 46.196289 L 235.694336 45.976074 Z M 236.687988 45.567871 L 236.687988 49.000000 L 235.694336 49.000000 L 235.694336 48.108398 Q 235.377441 48.645508 234.896729 48.900635 Q 234.416016 49.155762 233.728516 49.155762 Q 232.810059 49.155762 232.262207 48.637451 Q 231.714355 48.119141 231.714355 47.249023 Q 231.714355 46.244629 232.388428 45.723633 Q 233.062500 45.202637 234.367676 45.202637 L 235.694336 45.202637 L 235.694336 45.046875 Q 235.688965 44.327148 235.329102 44.002197 Q 234.969238 43.677246 234.179688 43.677246 Q 233.674805 43.677246 233.159180 43.822266 Q 232.643555 43.967285 232.154785 44.246582 L 232.154785 43.258301 Q 232.702637 43.048828 233.204834 42.944092 Q 233.707031 42.839355 234.179688 42.839355 Q 234.926270 42.839355 235.455322 43.059570 Q 235.984375 43.279785 236.312012 43.720215 Q 236.516113 43.988770 236.602051 44.383545 Q 236.687988 44.778320 236.687988 45.567871 Z " fill="rgb(0, 0, 0)" fill-opacity="1.000000" />
<path d="M 244.203613 44.225098 Q 243.886719 43.978027 243.559082 43.865234 Q 243.231445 43.752441 242.839355 43.752441 Q 241.915527 43.752441 241.426758 44.332520 Q 240.937988 44.912598 240.937988 46.008301 L 240.937988 49.000000 L 239.944336 49.000000 L 239.944336 42.984375 L 240.937988 42.984375 L 240.937988 44.160645 Q 241.185059 43.521484 241.697998 43.180420 Q 242.210938 42.839355 242.914551 42.839355 Q 243.279785 42.839355 243.596680 42.930664 Q 243.913574 43.021973 244.203613 43.215332 Z " fill="rgb(0, 0, 0)" fill-opacity="1.000000" />
<path d="M 251.015625 45.498047 L 251.015625 45.981445 L 246.734863 45.981445 L 246.734863 46.013672 Q 246.691895 47.243652 247.204834 47.780762 Q 247.717773 48.317871 248.652344 48.317871 Q 249.125000 48.317871 249.640625 48.167480 Q 250.156250 48.017090 250.741699 47.710938 L 250.741699 48.693848 Q 250.177734 48.924805 249.654053 49.040283 Q 249.130371 49.155762 248.641602 49.155762 Q 247.239746 49.155762 246.450195 48.315186 Q 245.660645 47.474609 245.660645 45.997559 Q 245.660645 44.558105 246.434082 43.698730 Q 247.207520 42.839355 248.496582 42.839355 Q 249.645996 42.839355 250.309326 43.618164 Q 250.972656 44.396973 251.015625 45.498047 Z M 250.027344 45.208008 Q 249.962891 44.584961 249.573486 44.131104 Q 249.184082 43.677246 248.453613 43.677246 Q 247.739258 43.677246 247.277344 44.149902 Q 246.815430 44.622559 246.772461 45.213379 Z " fill="rgb(0, 0, 0)" fill-opacity="1.000000" />
<path d="M 252.193359 41.007812 L 253.643555 41.007812 L 255.029297 45.079102 L 256.425781 41.007812 L 257.881348 41.007812 L 257.881348 49.000000 L 256.876953 49.000000 L 256.876953 41.937012 L 255.448242 46.147949 L 254.626465 46.147949 L 253.192383 41.937012 L 253.192383 49.000000 L 252.193359 49.000000 Z " fill="rgb(0, 0, 0)" fill-opacity="1.000000" />
<path d="M 265.015625 45.498047 L 265.015625 45.981445 L 260.734863 45.981445 L 260.734863 46.013672 Q 260.691895 47.243652 261.204834 47.780762 Q 261.717773 48.317871 262.652344 48.317871 Q 263.125000 48.317871 263.640625 48.167480 Q 264.156250 48.017090 264.741699 47.710938 L 264.741699 48.693848 Q 264.177734 48.924805 263.654053 49.040283 Q 263.130371 49.155762 262.641602 49.155762 Q 261.239746 49.155762 260.450195 48.315186 Q 259.660645 47.474609 259.660645 45.997559 Q 259.660645 44.558105 260.434082 43.698730 Q 261.207520 42.839355 262.496582 42.839355 Q 263.645996 42.839355 264.309326 43.618164 Q 264.972656 44.396973 265.015625 45.498047 Z M 264.027344 45.208008 Q 263.962891 44.584961 263.573486 44.131104 Q 263.184082 43.677246 262.453613 43.677246 Q 261.739258 43.677246 261.277344 44.149902 Q 260.815430 44.622559 260.772461 45.213379 Z " fill="rgb(0, 0, 0)" fill-opacity="1.000000" />
<path d="M 269.297852 41.276367 L 269.297852 42.984375 L 271.542969 42.984375 L 271.542969 43.752441 L 269.297852 43.752441 L 269.297852 47.018066 Q 269.297852 47.684082 269.550293 47.947266 Q 269.802734 48.210449 270.431152 48.210449 L 271.542969 48.210449 L 271.542969 49.000000 L 270.334473 49.000000 Q 269.222656 49.000000 268.766113 48.554199 Q 268.309570 48.108398 268.309570 47.018066 L 268.309570 43.752441 L 266.703613 43.752441 L 266.703613 42.984375 L 268.309570 42.984375 L 268.309570 41.276367 Z " fill="rgb(0, 0, 0)" fill-opacity="1.000000" />
<path d="M 276.770508 45.976074 L 276.442871 45.976074 Q 275.578125 45.976074 275.140381 46.279541 Q 274.702637 46.583008 274.702637 47.184570 Q 274.702637 47.727051 275.030273 48.027832 Q 275.357910 48.328613 275.937988 48.328613 Q 276.754395 48.328613 277.221680 47.761963 Q 277.688965 47.195312 277.694336 46.196289 L 277.694336 45.976074 Z M 278.687988 45.567871 L 278.687988 49.000000 L 277.694336 49.000000 L 277.694336 48.108398 Q 277.377441 48.645508 276.896729 48.900635 Q 276.416016 49.155762 275.728516 49.155762 Q 274.810059 49.155762 274.262207 48.637451 Q 273.714355 48.119141 273.714355 47.249023 Q 273.714355 46.244629 274.388428 45.723633 Q 275.062500 45.202637 276.367676 45.202637 L 277.694336 45.202637 L 277.694336 45.046875 Q 277.688965 44.327148 277.329102 44.002197 Q 276.969238 43.677246 276.179688 43.677246 Q 275.674805 43.677246 275.159180 43.822266 Q 274.643555 43.967285 274.154785 44.246582 L 274.154785 43.258301 Q 274.702637 43.048828 275.204834 42.944092 Q 275.707031 42.839355 276.179688 42.839355 Q 276.926270 42.839355 277.455322 43.059570 Q 277.984375 43.279785 278.312012 43.720215 Q 278.516113 43.988770 278.602051 44.383545 Q 278.687988 44.778320 278.687988 45.567871 Z " fill="rgb(0, 0, 0)" fill-opacity="1.000000" />
<path d="M 283.861816 46.824707 Q 283.861816 47.490723 284.106201 47.829102 Q 284.350586 48.167480 284.828613 48.167480 L 285.983398 48.167480 L 285.983398 49.000000 L 284.731934 49.000000 Q 283.845703 49.000000 283.359619 48.433350 Q 282.873535 47.866699 282.873535 46.824707 L 282.873535 41.383789 L 281.289062 41.383789 L 281.289062 40.610352 L 283.861816 40.610352 Z " fill="rgb(0, 0, 0)" fill-opacity="1.000000" />
<path d="M 298.860840 44.998535 Q 298.860840 43.231445 298.498291 42.474121 Q 298.135742 41.716797 297.308594 41.716797 Q 296.486816 41.716797 296.124268 42.474121 Q 295.761719 43.231445 295.761719 44.998535 Q 295.761719 46.760254 296.124268 47.517578 Q 296.486816 48.274902 297.308594 48.274902 Q 298.135742 48.274902 298.498291 47.520264 Q 298.860840 46.765625 298.860840 44.998535 Z M 299.994141 44.998535 Q 299.994141 47.093262 299.330811 48.124512 Q 298.667480 49.155762 297.308594 49.155762 Q 295.949707 49.155762 295.289062 48.129883 Q 294.628418 47.104004 294.628418 44.998535 Q 294.628418 42.898438 295.291748 41.867188 Q 295.955078 40.835938 297.308594 40.835938 Q 298.667480 40.835938 299.330811 41.867188 Q 299.994141 42.898438 299.994141 44.998535 Z " fill="rgb(0, 0, 0)" fill-opacity="1.000000" />
<path d="M 306.435547 41.254883 L 306.435547 42.355957 Q 305.941406 42.039062 305.444580 41.877930 Q 304.947754 41.716797 304.442871 41.716797 Q 303.674805 41.716797 303.229004 42.073975 Q 302.783203 42.431152 302.783203 43.038086 Q 302.783203 43.569824 303.075928 43.849121 Q 303.368652 44.128418 304.168945 44.316406 L 304.738281 44.445312 Q 305.866211 44.708496 306.381836 45.272461 Q 306.897461 45.836426 306.897461 46.808594 Q 306.897461 47.952637 306.188477 48.554199 Q 305.479492 49.155762 304.125977 49.155762 Q 303.562012 49.155762 302.992676 49.034912 Q 302.423340 48.914062 301.848633 48.672363 L 301.848633 47.517578 Q 302.466309 47.909668 303.016846 48.092285 Q 303.567383 48.274902 304.125977 48.274902 Q 304.947754 48.274902 305.404297 47.906982 Q 305.860840 47.539062 305.860840 46.878418 Q 305.860840 46.276855 305.546631 45.959961 Q 305.232422 45.643066 304.453613 45.471191 L 303.873535 45.336914 Q 302.756348 45.084473 302.251465 44.574219 Q 301.746582 44.063965 301.746582 43.204590 Q 301.746582 42.130371 302.468994 41.483154 Q 303.191406 40.835938 304.389160 40.835938 Q 304.851074 40.835938 305.361328 40.940674 Q 305.871582 41.045410 306.435547 41.254883 Z " fill="rgb(0, 0, 0)" fill-opacity="1.000000" />
<path d="M 331.878906 52.319336 L 331.878906 38.300781 L 332.738281 38.300781 L 332.738281 52.319336 Z " fill="rgb(0, 0, 0)" fill-opacity="1.000000" />
<path d="M 345.878906 52.319336 L 345.878906 38.300781 L 346.738281 38.300781 L 346.738281 52.319336 Z " fill="rgb(0, 0, 0)" fill-opacity="1.000000" />
<path d="M 79.878906 26.319336 L 79.878906 19.412109 L 83.729980 19.412109 L 83.729980 20.335938 L 80.738281 20.335938 L 80.738281 26.319336 Z " fill="rgb(0, 0, 0)" fill-opacity="1.000000" />
<path d="M 79.878906 39.319336 L 79.878906 25.300781 L 80.738281 25.300781 L 80.738281 39.319336 Z " fill="rgb(0, 0, 0)" fill-opacity="1.000000" />
<path d="M 205.878906 39.319336 L 205.878906 25.300781 L 206.738281 25.300781 L 206.738281 39.319336 Z " fill="rgb(0, 0, 0)" fill-opacity="1.000000" />
<path d="M 331.878906 39.319336 L 331.878906 25.300781 L 332.738281 25.300781 L 332.738281 39.319336 Z " fill="rgb(0, 0, 0)" fill-opacity="1.000000" />
<path d="M 345.878906 39.319336 L 345.878906 25.300781 L 346.738281 25.300781 L 346.738281 39.319336 Z " fill="rgb(0, 0, 0)" fill-opacity="1.000000" />
<path d="M 83.892578 20.335938 L 83.892578 19.412109 L 90.729980 19.412109 L 90.729980 20.335938 Z " fill="rgb(0, 0, 0)" fill-opacity="1.000000" />
<path d="M 90.892578 20.335938 L 90.892578 19.412109 L 97.729980 19.412109 L 97.729980 20.335938 Z " fill="rgb(0, 0, 0)" fill-opacity="1.000000" />
<path d="M 97.892578 20.335938 L 97.892578 19.412109 L 104.729980 19.412109 L 104.729980 20.335938 Z " fill="rgb(0, 0, 0)" fill-opacity="1.000000" />
<path d="M 104.892578 20.335938 L 104.892578 19.412109 L 111.729980 19.412109 L 111.729980 20.335938 Z " fill="rgb(0, 0, 0)" fill-opacity="1.000000" />
<path d="M 111.892578 20.335938 L 111.892578 19.412109 L 118.729980 19.412109 L 118.729980 20.335938 Z " fill="rgb(0, 0, 0)" fill-opacity="1.000000" />
<path d="M 118.892578 20.335938 L 118.892578 19.412109 L 125.729980 19.412109 L 125.729980 20.335938 Z " fill="rgb(0, 0, 0)" fill-opacity="1.000000" />
<path d="M 125.892578 20.335938 L 125.892578 19.412109 L 132.729980 19.412109 L 132.729980 20.335938 Z " fill="rgb(0, 0, 0)" fill-opacity="1.000000" />
<path d="M 132.892578 20.335938 L 132.892578 19.412109 L 139.729980 19.412109 L 139.729980 20.335938 Z " fill="rgb(0, 0, 0)" fill-opacity="1.000000" />
<path d="M 139.892578 20.335938 L 139.892578 19.412109 L 146.729980 19.412109 L 146.729980 20.335938 Z " fill="rgb(0, 0, 0)" fill-opacity="1.000000" />
<path d="M 146.892578 20.335938 L 146.892578 19.412109 L 153.729980 19.412109 L 153.729980 20.335938 Z " fill="rgb(0, 0, 0)" fill-opacity="1.000000" />
<path d="M 153.892578 20.335938 L 153.892578 19.412109 L 160.729980 19.412109 L 160.729980 20.335938 Z " fill="rgb(0, 0, 0)" fill-opacity="1.000000" />
<path d="M 160.892578 20.335938 L 160.892578 19.412109 L 167.729980 19.412109 L 167.729980 20.335938 Z " fill="rgb(0, 0, 0)" fill-opacity="1.000000" />
<path d="M 167.892578 20.335938 L 167.892578 19.412109 L 174.729980 19.412109 L 174.729980 20.335938 Z " fill="rgb(0, 0, 0)" fill-opacity="1.000000" />
<path d="M 174.892578 20.335938 L 174.892578 19.412109 L 181.729980 19.412109 L 181.729980 20.335938 Z " fill="rgb(0, 0, 0)" fill-opacity="1.000000" />
<path d="M 181.892578 20.335938 L 181.892578 19.412109 L 188.729980 19.412109 L 188.729980 20.335938 Z " fill="rgb(0, 0, 0)" fill-opacity="1.000000" />
<path d="M 188.892578 20.335938 L 188.892578 19.412109 L 195.729980 19.412109 L 195.729980 20.335938 Z " fill="rgb(0, 0, 0)" fill-opacity="1.000000" />
<path d="M 195.892578 20.335938 L 195.892578 19.412109 L 202.729980 19.412109 L 202.729980 20.335938 Z " fill="rgb(0, 0, 0)" fill-opacity="1.000000" />
<path d="M 205.878906 26.319336 L 205.878906 20.335938 L 202.892578 20.335938 L 202.892578 19.412109 L 209.729980 19.412109 L 209.729980 20.335938 L 206.738281 20.335938 L 206.738281 26.319336 Z " fill="rgb(0, 0, 0)" fill-opacity="1.000000" />
<path d="M 209.892578 20.335938 L 209.892578 19.412109 L 216.729980 19.412109 L 216.729980 20.335938 Z " fill="rgb(0, 0, 0)" fill-opacity="1.000000" />
<path d="M 216.892578 20.335938 L 216.892578 19.412109 L 223.729980 19.412109 L 223.729980 20.335938 Z " fill="rgb(0, 0, 0)" fill-opacity="1.000000" />
<path d="M 223.892578 20.335938 L 223.892578 19.412109 L 230.729980 19.412109 L 230.729980 20.335938 Z " fill="rgb(0, 0, 0)" fill-opacity="1.000000" />
<path d="M 230.892578 20.335938 L 230.892578 19.412109 L 237.729980 19.412109 L 237.729980 20.335938 Z " fill="rgb(0, 0, 0)" fill-opacity="1.000000" />
<path d="M 237.892578 20.335938 L 237.892578 19.412109 L 244.729980 19.412109 L 244.729980 20.335938 Z " fill="rgb(0, 0, 0)" fill-opacity="1.000000" />
<path d="M 244.892578 20.335938 L 244.892578 19.412109 L 251.729980 19.412109 L 251.729980 20.335938 Z " fill="rgb(0, 0, 0)" fill-opacity="1.000000" />
<path d="M 251.892578 20.335938 L 251.892578 19.412109 L 258.729980 19.412109 L 258.729980 20.335938 Z " fill="rgb(0, 0, 0)" fill-opacity="1.000000" />
<path d="M 258.892578 20.335938 L 258.892578 19.412109 L 265.729980 19.412109 L 265.729980 20.335938 Z " fill="rgb(0, 0, 0)" fill-opacity="1.000000" />
<path d="M 265.892578 20.335938 L 265.892578 19.412109 L 272.729980 19.412109 L 272.729980 20.335938 Z " fill="rgb(0, 0, 0)" fill-opacity="1.000000" />
<path d="M 272.892578 20.335938 L 272.892578 19.412109 L 279.729980 19.412109 L 279.729980 20.335938 Z " fill="rgb(0, 0, 0)" fill-opacity="1.000000" />
<path d="M 279.892578 20.335938 L 279.892578 19.412109 L 286.729980 19.412109 L 286.729980 20.335938 Z " fill="rgb(0, 0, 0)" fill-opacity="1.000000" />
<path d="M 286.892578 20.335938 L 286.892578 19.412109 L 293.729980 19.412109 L 293.729980 20.335938 Z " fill="rgb(0, 0, 0)" fill-opacity="1.000000" />
<path d="M 293.892578 20.335938 L 293.892578 19.412109 L 300.729980 19.412109 L 300.729980 20.335938 Z " fill="rgb(0, 0, 0)" fill-opacity="1.000000" />
<path d="M 300.892578 20.335938 L 300.892578 19.412109 L 307.729980 19.412109 L 307.729980 20.335938 Z " fill="rgb(0, 0, 0)" fill-opacity="1.000000" />
<path d="M 307.892578 20.335938 L 307.892578 19.412109 L 314.729980 19.412109 L 314.729980 20.335938 Z " fill="rgb(0, 0, 0)" fill-opacity="1.000000" />
<path d="M 314.892578 20.335938 L 314.892578 19.412109 L 321.729980 19.412109 L 321.729980 20.335938 Z " fill="rgb(0, 0, 0)" fill-opacity="1.000000" />
<path d="M 321.892578 20.335938 L 321.892578 19.412109 L 328.729980 19.412109 L 328.729980 20.335938 Z " fill="rgb(0, 0, 0)" fill-opacity="1.000000" />
<path d="M 331.878906 26.319336 L 331.878906 20.335938 L 328.892578 20.335938 L 328.892578 19.412109 L 332.738281 19.412109 L 332.738281 26.319336 Z " fill="rgb(0, 0, 0)" fill-opacity="1.000000" />
<path d="M 345.878906 26.319336 L 345.878906 12.300781 L 346.738281 12.300781 L 346.738281 26.319336 Z " fill="rgb(0, 0, 0)" fill-opacity="1.000000" />
<path d="M 6.892578 7.335938 L 6.892578 6.412109 L 13.729980 6.412109 L 13.729980 7.335938 Z " fill="rgb(0, 0, 0)" fill-opacity="1.000000" />
<path d="M 13.892578 7.335938 L 13.892578 6.412109 L 20.729980 6.412109 L 20.729980 7.335938 Z " fill="rgb(0, 0, 0)" fill-opacity="1.000000" />
<path d="M 20.892578 7.335938 L 20.892578 6.412109 L 27.729980 6.412109 L 27.729980 7.335938 Z " fill="rgb(0, 0, 0)" fill-opacity="1.000000" />
<path d="M 27.892578 7.335938 L 27.892578 6.412109 L 34.729980 6.412109 L 34.729980 7.335938 Z " fill="rgb(0, 0, 0)" fill-opacity="1.000000" />
<path d="M 34.892578 7.335938 L 34.892578 6.412109 L 41.729980 6.412109 L 41.729980 7.335938 Z " fill="rgb(0, 0, 0)" fill-opacity="1.000000" />
<path d="M 41.892578 7.335938 L 41.892578 6.412109 L 48.729980 6.412109 L 48.729980 7.335938 Z " fill="rgb(0, 0, 0)" fill-opacity="1.000000" />
<path d="M 48.892578 7.335938 L 48.892578 6.412109 L 55.729980 6.412109 L 55.729980 7.335938 Z " fill="rgb(0, 0, 0)" fill-opacity="1.000000" />
<path d="M 55.892578 7.335938 L 55.892578 6.412109 L 62.729980 6.412109 L 62.729980 7.335938 Z " fill="rgb(0, 0, 0)" fill-opacity="1.000000" />
<path d="M 62.892578 7.335938 L 62.892578 6.412109 L 69.729980 6.412109 L 69.729980 7.335938 Z " fill="rgb(0, 0, 0)" fill-opacity="1.000000" />
<path d="M 69.892578 7.335938 L 69.892578 6.412109 L 76.729980 6.412109 L 76.729980 7.335938 Z " fill="rgb(0, 0, 0)" fill-opacity="1.000000" />
<path d="M 76.892578 7.335938 L 76.892578 6.412109 L 83.729980 6.412109 L 83.729980 7.335938 Z " fill="rgb(0, 0, 0)" fill-opacity="1.000000" />
<path d="M 83.892578 7.335938 L 83.892578 6.412109 L 90.729980 6.412109 L 90.729980 7.335938 Z " fill="rgb(0, 0, 0)" fill-opacity="1.000000" />
<path d="M 90.892578 7.335938 L 90.892578 6.412109 L 97.729980 6.412109 L 97.729980 7.335938 Z " fill="rgb(0, 0, 0)" fill-opacity="1.000000" />
<path d="M 97.892578 7.335938 L 97.892578 6.412109 L 104.729980 6.412109 L 104.729980 7.335938 Z " fill="rgb(0, 0, 0)" fill-opacity="1.000000" />
<path d="M 104.892578 7.335938 L 104.892578 6.412109 L 111.729980 6.412109 L 111.729980 7.335938 Z " fill="rgb(0, 0, 0)" fill-opacity="1.000000" />
<path d="M 111.892578 7.335938 L 111.892578 6.412109 L 118.729980 6.412109 L 118.729980 7.335938 Z " fill="rgb(0, 0, 0)" fill-opacity="1.000000" />
<path d="M 118.892578 7.335938 L 118.892578 6.412109 L 125.729980 6.412109 L 125.729980 7.335938 Z " fill="rgb(0, 0, 0)" fill-opacity="1.000000" />
<path d="M 125.892578 7.335938 L 125.892578 6.412109 L 132.729980 6.412109 L 132.729980 7.335938 Z " fill="rgb(0, 0, 0)" fill-opacity="1.000000" />
<path d="M 132.892578 7.335938 L 132.892578 6.412109 L 139.729980 6.412109 L 139.729980 7.335938 Z " fill="rgb(0, 0, 0)" fill-opacity="1.000000" />
<path d="M 139.892578 7.335938 L 139.892578 6.412109 L 146.729980 6.412109 L 146.729980 7.335938 Z " fill="rgb(0, 0, 0)" fill-opacity="1.000000" />
<path d="M 146.892578 7.335938 L 146.892578 6.412109 L 153.729980 6.412109 L 153.729980 7.335938 Z " fill="rgb(0, 0, 0)" fill-opacity="1.000000" />
<path d="M 153.892578 7.335938 L 153.892578 6.412109 L 160.729980 6.412109 L 160.729980 7.335938 Z " fill="rgb(0, 0, 0)" fill-opacity="1.000000" />
<path d="M 160.892578 7.335938 L 160.892578 6.412109 L 167.729980 6.412109 L 167.729980 7.335938 Z " fill="rgb(0, 0, 0)" fill-opacity="1.000000" />
<path d="M 167.892578 7.335938 L 167.892578 6.412109 L 174.729980 6.412109 L 174.729980 7.335938 Z " fill="rgb(0, 0, 0)" fill-opacity="1.000000" />
<path d="M 174.892578 7.335938 L 174.892578 6.412109 L 181.729980 6.412109 L 181.729980 7.335938 Z " fill="rgb(0, 0, 0)" fill-opacity="1.000000" />
<path d="M 181.892578 7.335938 L 181.892578 6.412109 L 188.729980 6.412109 L 188.729980 7.335938 Z " fill="rgb(0, 0, 0)" fill-opacity="1.000000" />
<path d="M 188.892578 7.335938 L 188.892578 6.412109 L 195.729980 6.412109 L 195.729980 7.335938 Z " fill="rgb(0, 0, 0)" fill-opacity="1.000000" />
<path d="M 195.892578 7.335938 L 195.892578 6.412109 L 202.729980 6.412109 L 202.729980 7.335938 Z " fill="rgb(0, 0, 0)" fill-opacity="1.000000" />
<path d="M 202.892578 7.335938 L 202.892578 6.412109 L 209.729980 6.412109 L 209.729980 7.335938 Z " fill="rgb(0, 0, 0)" fill-opacity="1.000000" />
<path d="M 209.892578 7.335938 L 209.892578 6.412109 L 216.729980 6.412109 L 216.729980 7.335938 Z " fill="rgb(0, 0, 0)" fill-opacity="1.000000" />
<path d="M 216.892578 7.335938 L 216.892578 6.412109 L 223.729980 6.412109 L 223.729980 7.335938 Z " fill="rgb(0, 0, 0)" fill-opacity="1.000000" />
<path d="M 223.892578 7.335938 L 223.892578 6.412109 L 230.729980 6.412109 L 230.729980 7.335938 Z " fill="rgb(0, 0, 0)" fill-opacity="1.000000" />
<path d="M 230.892578 7.335938 L 230.892578 6.412109 L 237.729980 6.412109 L 237.729980 7.335938 Z " fill="rgb(0, 0, 0)" fill-opacity="1.000000" />
<path d="M 237.892578 7.335938 L 237.892578 6.412109 L 244.729980 6.412109 L 244.729980 7.335938 Z " fill="rgb(0, 0, 0)" fill-opacity="1.000000" />
<path d="M 244.892578 7.335938 L 244.892578 6.412109 L 251.729980 6.412109 L 251.729980 7.335938 Z " fill="rgb(0, 0, 0)" fill-opacity="1.000000" />
<path d="M 251.892578 7.335938 L 251.892578 6.412109 L 258.729980 6.412109 L 258.729980 7.335938 Z " fill="rgb(0, 0, 0)" fill-opacity="1.000000" />
<path d="M 258.892578 7.335938 L 258.892578 6.412109 L 265.729980 6.412109 L 265.729980 7.335938 Z " fill="rgb(0, 0, 0)" fill-opacity="1.000000" />
<path d="M 265.892578 7.335938 L 265.892578 6.412109 L 272.729980 6.412109 L 272.729980 7.335938 Z " fill="rgb(0, 0, 0)" fill-opacity="1.000000" />
<path d="M 272.892578 7.335938 L 272.892578 6.412109 L 279.729980 6.412109 L 279.729980 7.335938 Z " fill="rgb(0, 0, 0)" fill-opacity="1.000000" />
<path d="M 279.892578 7.335938 L 279.892578 6.412109 L 286.729980 6.412109 L 286.729980 7.335938 Z " fill="rgb(0, 0, 0)" fill-opacity="1.000000" />
<path d="M 286.892578 7.335938 L 286.892578 6.412109 L 293.729980 6.412109 L 293.729980 7.335938 Z " fill="rgb(0, 0, 0)" fill-opacity="1.000000" />
<path d="M 293.892578 7.335938 L 293.892578 6.412109 L 300.729980 6.412109 L 300.729980 7.335938 Z " fill="rgb(0, 0, 0)" fill-opacity="1.000000" />
<path d="M 300.892578 7.335938 L 300.892578 6.412109 L 307.729980 6.412109 L 307.729980 7.335938 Z " fill="rgb(0, 0, 0)" fill-opacity="1.000000" />
<path d="M 307.892578 7.335938 L 307.892578 6.412109 L 314.729980 6.412109 L 314.729980 7.335938 Z " fill="rgb(0, 0, 0)" fill-opacity="1.000000" />
<path d="M 314.892578 7.335938 L 314.892578 6.412109 L 321.729980 6.412109 L 321.729980 7.335938 Z " fill="rgb(0, 0, 0)" fill-opacity="1.000000" />
<path d="M 321.892578 7.335938 L 321.892578 6.412109 L 328.729980 6.412109 L 328.729980 7.335938 Z " fill="rgb(0, 0, 0)" fill-opacity="1.000000" />
<path d="M 328.892578 7.335938 L 328.892578 6.412109 L 335.729980 6.412109 L 335.729980 7.335938 Z " fill="rgb(0, 0, 0)" fill-opacity="1.000000" />
<path d="M 335.892578 7.335938 L 335.892578 6.412109 L 342.729980 6.412109 L 342.729980 7.335938 Z " fill="rgb(0, 0, 0)" fill-opacity="1.000000" />
<path d="M 345.878906 13.319336 L 345.878906 7.335938 L 342.892578 7.335938 L 342.892578 6.412109 L 346.738281 6.412109 L 346.738281 13.319336 Z " fill="rgb(0, 0, 0)" fill-opacity="1.000000" />
</svg>